<svg width="60" height="48" viewBox="0 0 60 48" fill="none" xmlns="http://www.w3.org/2000/svg">
<path d="M13.2949 0.694104C16.9573 0.694104 20.6183 0.694104 24.2807 0.694104C25.0558 0.694104 25.352 0.996037 25.3765 1.76075C25.503 5.79593 25.6382 9.83112 25.7661 13.8677C25.8352 16.0264 25.9373 18.1851 25.9473 20.3438C25.9559 22.3021 27.4097 24.2562 29.8643 24.5835C32.6438 24.9546 35.235 25.8943 37.6565 27.2826C39.6523 28.4283 41.3922 29.8815 43.0128 31.4942C45.3192 33.7883 48.0801 35.3671 51.1745 36.4408C52.8699 37.0291 54.6011 37.4566 56.331 37.9138C57.7646 38.2933 58.8014 39.2217 59.1939 40.6664C59.6426 42.3158 58.8014 43.9115 57.1851 44.672C56.1354 45.1658 55.0124 45.2999 53.8707 45.3238C53.3329 45.3351 52.7922 45.3168 52.2573 45.2702C50.1291 45.0882 48.0369 45.2575 45.9577 45.7471C43.8986 46.2325 41.7948 46.3115 39.6825 46.2579C37.7614 46.2085 35.8806 45.8868 34.0012 45.5298C31.9148 45.1334 29.8039 45.0022 27.6815 45.0417C25.9329 45.0741 24.1902 45.1983 22.4804 45.5736C21.4796 45.7923 20.5062 46.1281 19.5111 46.3778C17.3369 46.9238 15.1283 47.1735 12.8995 46.825C9.66266 46.3185 7.1664 44.7962 5.95422 41.6597C5.34309 40.0767 5.29851 38.4414 5.72702 36.8147C5.98729 35.827 6.1469 34.8352 6.0937 33.8236C5.98873 31.8441 5.89814 29.8631 5.70114 27.8921C5.48832 25.7687 5.18492 23.6538 4.87432 21.5416C4.59105 19.6157 4.25888 17.6969 3.92816 15.7781C3.59599 13.8593 3.25233 11.9432 2.88853 10.0301C2.49022 7.94474 2.06603 5.86366 1.64759 3.78257C1.50955 3.11663 1.35569 2.4535 1.21764 1.78755C1.07529 1.10186 1.48079 0.654598 2.23714 0.656009C5.75578 0.664475 9.27298 0.67294 12.7916 0.681405C12.9599 0.681405 13.1267 0.681405 13.2949 0.681405C13.2949 0.685638 13.2949 0.689871 13.2949 0.694104ZM23.3375 43.5955C24.2146 43.5122 25.0673 43.4375 25.9171 43.3457C26.0106 43.3359 26.1026 43.2442 26.1803 43.1736C28.4004 41.173 30.6177 39.1709 32.8365 37.1688C33.6202 36.4619 34.401 35.7523 35.1933 35.0539C35.7253 34.584 36.4946 34.7844 36.6887 35.4362C36.8066 35.8327 36.6456 36.1403 36.3494 36.4069C33.9336 38.5797 31.5208 40.7553 29.1022 42.9267C29.0101 43.01 28.8778 43.0495 28.7642 43.1087C28.8002 43.1553 28.8361 43.2018 28.8721 43.2498C28.9742 43.2597 29.0763 43.2724 29.1784 43.278C29.9074 43.3189 30.635 43.3697 31.364 43.3867C31.5452 43.3909 31.7738 43.3316 31.9047 43.2174C33.8948 41.4932 35.8734 39.755 37.8535 38.0196C38.4775 37.4722 39.1002 36.9233 39.7285 36.3815C40.065 36.0923 40.4734 36.0471 40.8257 36.2433C41.1578 36.4281 41.3347 36.7709 41.2312 37.173C41.1794 37.3734 41.0428 37.5836 40.8846 37.7233C39.1792 39.2316 37.4623 40.7271 35.7483 42.2269C35.2005 42.7066 34.654 43.1891 34.0343 43.7323C34.8323 43.8875 35.5283 44.0314 36.23 44.1486C36.3321 44.1655 36.4773 44.078 36.5679 44.0004C38.4905 42.3426 40.4072 40.6777 42.324 39.0157C42.9337 38.4866 43.5362 37.9519 44.1545 37.4326C44.5658 37.087 45.1093 37.1124 45.4458 37.4679C45.7808 37.8221 45.7506 38.361 45.3653 38.7307C45.2028 38.8873 45.0317 39.034 44.862 39.1808C42.9179 40.8668 40.9723 42.5514 39.0283 44.2388C38.9736 44.2868 38.9333 44.3517 38.8499 44.4533C41.0442 44.6184 43.1724 44.5563 45.2588 44.0921C47.2907 43.6392 49.3268 43.3711 51.4104 43.4685C52.2343 43.5066 53.0597 43.5729 53.8836 43.5644C54.8183 43.556 55.7486 43.4614 56.5841 42.9803C57.5432 42.4258 57.8135 41.3634 57.1894 40.5465C56.7825 40.0132 56.249 39.6308 55.5732 39.5109C53.6348 39.1667 51.7856 38.5374 49.9465 37.87C46.7097 36.6947 43.8741 34.9198 41.4713 32.4804C40.3713 31.3629 39.1692 30.364 37.8549 29.4949C35.2652 27.7835 32.4267 26.6914 29.3322 26.2724C26.7554 25.9239 24.5151 23.7878 24.2506 21.2453C24.0938 19.7427 24.0996 18.2232 24.0521 16.7107C23.9069 12.0759 23.7674 7.44105 23.6366 2.80623C23.6279 2.51981 23.523 2.45632 23.2541 2.45491C16.6841 2.4408 10.1127 2.41964 3.54279 2.4013C3.4407 2.4013 3.34004 2.41823 3.1905 2.43234C3.30553 2.99811 3.41769 3.52297 3.52122 4.04923C3.93391 6.14443 4.35379 8.23821 4.7521 10.3362C5.11733 12.2607 5.47682 14.1866 5.80755 16.1167C6.13971 18.0595 6.45318 20.0052 6.73933 21.9536C7.01541 23.8343 7.27999 25.7179 7.4885 27.6057C7.7387 29.8688 7.9357 32.1389 7.88393 34.4204C7.88393 34.4486 7.91269 34.4782 7.94288 34.5361C8.60577 33.9223 9.25572 33.3213 9.9028 32.7174C10.7612 31.916 11.6139 31.1104 12.4753 30.3132C12.8477 29.969 13.3941 29.9732 13.7378 30.3048C14.0858 30.6406 14.0973 31.1823 13.7579 31.5421C13.6443 31.662 13.5221 31.7749 13.3999 31.8892C11.4759 33.6853 9.54762 35.4785 7.63229 37.2831C7.4885 37.4185 7.3749 37.6259 7.33751 37.8178C7.26705 38.1734 7.23398 38.5416 7.24117 38.9028C7.2498 39.3374 7.31738 39.7705 7.36915 40.294C7.71425 39.9793 7.97021 39.7522 8.21897 39.5194C11.3033 36.6383 14.3877 33.7572 17.4735 30.8762C17.9265 30.4543 18.4585 30.4416 18.8338 30.8367C19.1948 31.2148 19.1574 31.7368 18.7188 32.1474C16.5475 34.1819 14.3733 36.2136 12.1992 38.2453C10.9165 39.4432 9.63103 40.6382 8.35557 41.8431C8.26642 41.9264 8.17296 42.1352 8.21753 42.2043C8.57414 42.7757 9.0199 43.2738 9.59364 43.6731C9.68567 43.5912 9.76619 43.5235 9.8424 43.4502C12.2855 41.1165 14.7285 38.7829 17.1701 36.4492C18.7389 34.9495 20.3048 33.4497 21.8722 31.9499C22.2403 31.5971 22.6674 31.521 23.0412 31.7368C23.5934 32.0557 23.6308 32.7329 23.1131 33.2282C19.2494 36.9233 15.3842 40.6171 11.5205 44.3122C11.4328 44.3955 11.3551 44.49 11.1955 44.6649C11.9806 44.8385 12.6608 45.005 13.351 45.1277C13.489 45.1517 13.6932 45.0431 13.8068 44.9344C15.9723 42.8773 18.1292 40.8104 20.289 38.7462C22.2935 36.8288 24.298 34.9128 26.3039 32.9968C26.7195 32.6003 27.2918 32.5791 27.6455 32.9417C28.0065 33.3114 27.9734 33.8475 27.5592 34.2553C27.1883 34.6207 26.8115 34.9819 26.4333 35.3417C23.1074 38.519 19.78 41.695 16.454 44.8723C16.3836 44.9401 16.3261 45.0219 16.2628 45.0967C16.2786 45.132 16.2959 45.1672 16.3117 45.2025C17.1874 45.0417 18.0602 44.8653 18.9402 44.7242C19.501 44.6339 19.908 44.3447 20.3063 43.9637C23.7674 40.6537 27.2429 37.3579 30.7184 34.062C30.8421 33.9435 31.0031 33.8405 31.167 33.7897C31.5668 33.6627 31.9838 33.8348 32.1923 34.1749C32.4109 34.5332 32.3318 34.9763 31.9694 35.3219C29.4099 37.7572 26.846 40.1867 24.2879 42.6234C23.9673 42.9295 23.6696 43.2583 23.3375 43.6011V43.5955Z" fill="url(#paint0_linear_320_2633)" stroke="url(#paint1_linear_320_2633)" stroke-width="0.7"/>
<defs>
<linearGradient id="paint0_linear_320_2633" x1="30.2516" y1="0.656006" x2="30.2516" y2="46.9857" gradientUnits="userSpaceOnUse">
<stop offset="0.01" stop-color="#AA0075"/>
<stop offset="0.35" stop-color="#DE003B"/>
<stop offset="1" stop-color="#FF3F9B"/>
</linearGradient>
<linearGradient id="paint1_linear_320_2633" x1="30.2516" y1="0.656006" x2="30.2516" y2="46.9857" gradientUnits="userSpaceOnUse">
<stop offset="0.01" stop-color="#AA0075"/>
<stop offset="0.35" stop-color="#DE003B"/>
<stop offset="1" stop-color="#FF3F9B"/>
</linearGradient>
</defs>
</svg>
