<svg width="57" height="62" viewBox="0 0 57 62" fill="none" xmlns="http://www.w3.org/2000/svg">
<path d="M11.8482 33.1346C11.6929 33.017 11.5866 32.9314 11.4738 32.8522C8.98057 31.1318 7.82329 28.2495 8.46575 25.3586C9.08481 22.5726 11.3526 20.4199 14.2309 19.9213C14.7329 19.8336 15.2541 19.84 15.7668 19.8379C19.3961 19.8315 23.0253 19.8336 26.6525 19.8336C26.8418 19.8336 27.0333 19.8336 27.3375 19.8336C27.2013 19.6389 27.1396 19.5233 27.0524 19.4335C25.7207 18.0255 25.0612 16.3372 25.0506 14.4071C25.0314 11.3279 25.0421 8.24656 25.0463 5.16738C25.0463 4.36496 25.376 4.04399 26.1866 4.04185C28.0629 4.03329 29.9392 4.02687 31.8155 4.03115C32.692 4.03115 32.9941 4.33928 32.9941 5.2273C33.0005 7.79079 33.0111 10.3543 32.9877 12.9178C32.9834 13.4463 33.1196 13.6389 33.6706 13.6239C34.998 13.5875 36.3255 13.6025 37.653 13.6175C38.0146 13.6218 38.1891 13.5126 38.2571 13.1275C38.7081 10.6025 41.0865 8.9955 43.4649 9.58608C45.9603 10.2066 47.3324 12.6717 46.6006 15.1731C46.5453 15.3614 46.6112 15.6696 46.741 15.8172C49.7831 19.2687 49.2172 24.0662 45.4476 26.681C45.3625 26.7409 45.2816 26.8094 45.137 26.9228C45.3008 27.0448 45.4284 27.1496 45.5646 27.2438C48.0089 28.9449 49.1704 31.8829 48.5173 34.7117C47.8621 37.5448 45.5901 39.6846 42.6969 40.1532C42.1757 40.2367 41.6375 40.2302 41.1078 40.2302C37.887 40.2367 34.6641 40.2345 31.4432 40.2345C31.239 40.2345 31.0348 40.2345 30.7285 40.2345C30.8476 40.4207 30.888 40.5148 30.954 40.5833C32.3389 42.0255 32.9983 43.7566 32.9983 45.7531C32.9983 49.6347 32.9983 53.5163 32.9962 57.3979C32.9962 58.2667 32.7005 58.5641 31.8517 58.5684C29.9754 58.5748 28.0991 58.5727 26.2227 58.5684C25.3548 58.5662 25.0484 58.2517 25.0463 57.3658C25.0421 53.9464 25.0357 50.5291 25.0548 47.1097C25.0569 46.5983 24.9165 46.4378 24.4017 46.4464C22.6679 46.4763 20.932 46.4678 19.1982 46.4507C18.7876 46.4464 18.5898 46.5191 18.5005 46.9984C18.126 49.0141 16.4157 50.4756 14.4585 50.527C12.3503 50.5826 10.5803 49.2602 10.0804 47.2103C9.88044 46.3865 9.94001 45.5541 10.2017 44.7345C10.2591 44.5569 10.2357 44.2595 10.123 44.1332C7.14893 40.8251 7.9169 35.6446 11.6355 33.3294C11.6951 33.293 11.7397 33.2374 11.8504 33.1389L11.8482 33.1346ZM27.5864 32.253C31.6943 32.253 35.8022 32.253 39.908 32.253C40.7908 32.253 41.2163 32.5441 41.2142 33.1411C41.2142 33.7381 40.7951 34.0184 39.9016 34.0184C31.8985 34.0184 23.8954 34.0184 15.8945 34.0184C15.6285 34.0184 15.3626 34.0077 15.0988 34.0312C13.0289 34.2088 11.4696 35.2017 10.5782 37.0976C9.70387 38.9549 9.91448 40.7588 11.059 42.4621C11.2866 42.8001 11.4547 42.8943 11.8482 42.6225C14.0181 41.1268 16.8815 41.8651 18.1026 44.2253C18.275 44.5591 18.4664 44.6789 18.8345 44.6746C21.0469 44.6596 23.2615 44.6661 25.4739 44.6682C26.5567 44.6682 26.812 44.9271 26.812 46.0248C26.812 49.3908 26.8248 52.7567 26.7992 56.1226C26.795 56.6768 26.9694 56.8266 27.497 56.8073C28.5224 56.7709 29.552 56.7709 30.5774 56.8073C31.0858 56.8244 31.2433 56.6747 31.2411 56.1525C31.2199 52.716 31.2348 49.2795 31.2241 45.843C31.2241 45.3658 31.2092 44.8715 31.0965 44.4114C30.4625 41.8479 28.4543 40.2581 25.8185 40.2388C23.287 40.2195 20.7554 40.2345 18.2239 40.2324C18.0112 40.2324 17.7984 40.2345 17.5878 40.2088C17.1624 40.1575 16.9177 39.8772 16.8496 39.4792C16.7794 39.0683 16.9624 38.726 17.3496 38.5783C17.6048 38.482 17.9005 38.4628 18.1771 38.4628C24.5506 38.4563 30.9242 38.4585 37.2977 38.4585C38.8549 38.4585 40.4143 38.4863 41.9715 38.4435C44.9328 38.3579 47.3409 35.3964 46.875 32.4606C46.4283 29.6425 44.3116 27.8172 41.4631 27.8172C33.3898 27.813 25.3165 27.8172 17.2432 27.8151C17.0305 27.8151 16.8156 27.8279 16.6071 27.7958C16.1561 27.7295 15.8455 27.3443 15.8562 26.9035C15.8668 26.4585 16.1944 26.1054 16.6539 26.0604C16.8645 26.0412 17.0794 26.0497 17.29 26.0497C25.2208 26.0497 33.1536 26.0497 41.0844 26.0497C41.3503 26.0497 41.6162 26.0626 41.88 26.0391C43.9712 25.8529 45.5454 24.8515 46.4262 22.9256C47.2962 21.0212 47.0495 19.1853 45.8305 17.4798C45.5816 17.131 45.3965 17.0412 44.9923 17.3322C42.8352 18.8921 39.9229 18.1967 38.6762 15.8365C38.4975 15.4984 38.3018 15.3871 37.9402 15.3914C36.1511 15.4064 34.3641 15.3999 32.575 15.3978C31.4943 15.3978 31.2263 15.1282 31.2263 14.0412C31.2263 11.5119 31.2114 8.98266 31.2348 6.45555C31.239 5.93129 31.0731 5.78579 30.5689 5.80291C29.4903 5.83714 28.4096 5.8243 27.329 5.80933C26.9439 5.80291 26.7971 5.93129 26.7992 6.33144C26.812 9.03829 26.7844 11.7451 26.8163 14.452C26.8397 16.4741 27.7268 18.0383 29.4542 19.0975C30.2753 19.6025 31.188 19.7823 32.1368 19.8507C32.6558 19.8871 32.9686 20.2295 32.9749 20.7045C32.9792 21.1689 32.6516 21.5348 32.158 21.5968C31.9836 21.6182 31.8049 21.6097 31.6283 21.6097C29.0798 21.6097 26.5291 21.6097 23.9805 21.6097C21.0065 21.6097 18.0303 21.5754 15.0584 21.6289C12.0291 21.6845 9.62516 24.6674 10.1166 27.6653C10.5676 30.4171 12.6949 32.2488 15.4711 32.253C19.5088 32.2616 23.5444 32.253 27.5821 32.2552L27.5864 32.253ZM16.8156 46.2217C16.8156 44.7773 15.7051 43.6497 14.267 43.6368C12.8545 43.624 11.7249 44.7773 11.7312 46.2281C11.7376 47.6276 12.8779 48.7638 14.2755 48.7616C15.6711 48.7595 16.8156 47.6169 16.8156 46.2217ZM42.4629 11.268C41.0546 11.2787 39.9399 12.4106 39.9441 13.8229C39.9484 15.2566 41.0886 16.3842 42.5246 16.38C43.9265 16.3757 45.0774 15.1838 45.054 13.763C45.0306 12.3785 43.867 11.2573 42.4629 11.268Z" fill="url(#paint0_linear_320_2623)" stroke="url(#paint1_linear_320_2623)" stroke-linejoin="round"/>
<path d="M4.32644 50.5035C3.62016 50.5035 2.91388 50.5185 2.20973 50.4992C1.58003 50.4821 1.17796 50.0991 1.19072 49.5791C1.20562 49.0463 1.60769 48.7125 2.2544 48.7317C3.701 48.7745 5.14759 48.8195 6.59419 48.8901C7.12816 48.9158 7.47704 49.3116 7.46002 49.7781C7.443 50.2446 7.06859 50.6041 6.54952 50.6426C6.40911 50.6533 6.26658 50.6426 6.12617 50.6362C5.52626 50.6084 4.92848 50.5763 4.32856 50.5463C4.32856 50.5313 4.32856 50.5163 4.32856 50.5035H4.32644Z" fill="url(#paint2_linear_320_2623)" stroke="url(#paint3_linear_320_2623)" stroke-linejoin="round"/>
<path d="M52.6958 13.8338C51.9385 13.7974 51.179 13.7781 50.4217 13.7225C49.8537 13.6797 49.4984 13.2903 49.5303 12.8045C49.5622 12.3081 49.9451 11.955 50.511 11.9679C51.9576 12.0021 53.4042 12.0492 54.8487 12.1112C55.4358 12.1369 55.8209 12.5456 55.7953 13.0463C55.7677 13.5535 55.3699 13.8766 54.7593 13.8787C54.0722 13.8809 53.3829 13.8787 52.6958 13.8787C52.6958 13.8637 52.6958 13.8488 52.6958 13.8338Z" fill="url(#paint4_linear_320_2623)" stroke="url(#paint5_linear_320_2623)" stroke-linejoin="round"/>
<path d="M53.1262 5.51827C52.9305 5.83924 52.8369 6.09816 52.6582 6.26934C51.6264 7.26435 50.5819 8.24652 49.5289 9.21799C49.0736 9.63954 48.5715 9.63954 48.212 9.26293C47.8419 8.87563 47.8674 8.37705 48.3163 7.94695C49.3502 6.95622 50.3989 5.97833 51.4435 4.99616C51.7498 4.70728 52.1242 4.53824 52.4986 4.78218C52.7475 4.9448 52.9071 5.25079 53.1283 5.51827H53.1262Z" fill="url(#paint6_linear_320_2623)" stroke="url(#paint7_linear_320_2623)" stroke-linejoin="round"/>
<path d="M4.79254 58.0334C4.54152 57.8237 4.22667 57.6653 4.0735 57.4064C3.86927 57.0641 3.96713 56.6789 4.26922 56.39C4.80744 55.8765 5.35204 55.3715 5.89238 54.8622C6.4072 54.3765 6.91351 53.8822 7.43897 53.4071C7.92187 52.9685 8.43669 52.9621 8.79409 53.3622C9.14935 53.7602 9.11319 54.2417 8.65581 54.6803C7.62192 55.6711 6.57739 56.6532 5.52222 57.6226C5.34991 57.7809 5.10526 57.8622 4.79254 58.0334Z" fill="url(#paint8_linear_320_2623)" stroke="url(#paint9_linear_320_2623)" stroke-linejoin="round"/>
<path d="M44.0596 4.61751C44.0596 3.8536 44.032 3.08755 44.0681 2.32578C44.0979 1.69668 44.4681 1.36501 44.9978 1.40139C45.4956 1.43562 45.8253 1.80795 45.8126 2.39854C45.7828 3.83863 45.736 5.27871 45.6764 6.7188C45.6509 7.32865 45.2722 7.68814 44.7489 7.66888C44.2234 7.64962 43.9192 7.27943 43.915 6.64391C43.9107 5.96773 43.915 5.29155 43.915 4.61751C43.9639 4.61751 44.0107 4.61751 44.0596 4.61751Z" fill="url(#paint10_linear_320_2623)" stroke="url(#paint11_linear_320_2623)" stroke-linejoin="round"/>
<path d="M11.3047 58.0527C11.3047 57.3594 11.2898 56.664 11.3089 55.9728C11.3281 55.286 11.6961 54.9051 12.2556 54.9372C12.7938 54.9671 13.0852 55.348 13.0682 56.0328C13.0384 57.2781 12.998 58.5214 12.9597 59.7667C12.9533 59.9443 12.9448 60.1219 12.9236 60.2995C12.8555 60.8987 12.53 61.2239 12.0216 61.209C11.5046 61.194 11.177 60.8067 11.1728 60.1883C11.1664 59.4778 11.1728 58.7653 11.1728 58.0549C11.2174 58.0549 11.26 58.0549 11.3047 58.0549V58.0527Z" fill="url(#paint12_linear_320_2623)" stroke="url(#paint13_linear_320_2623)" stroke-linejoin="round"/>
<defs>
<linearGradient id="paint0_linear_320_2623" x1="28.4939" y1="4.02979" x2="28.4939" y2="58.5724" gradientUnits="userSpaceOnUse">
<stop offset="0.01" stop-color="#AA0075"/>
<stop offset="0.35" stop-color="#DE003B"/>
<stop offset="1" stop-color="#FF3F9B"/>
</linearGradient>
<linearGradient id="paint1_linear_320_2623" x1="28.4939" y1="4.02979" x2="28.4939" y2="58.5724" gradientUnits="userSpaceOnUse">
<stop offset="0.01" stop-color="#AA0075"/>
<stop offset="0.35" stop-color="#DE003B"/>
<stop offset="1" stop-color="#FF3F9B"/>
</linearGradient>
<linearGradient id="paint2_linear_320_2623" x1="4.32552" y1="48.731" x2="4.32552" y2="50.6471" gradientUnits="userSpaceOnUse">
<stop offset="0.01" stop-color="#AA0075"/>
<stop offset="0.35" stop-color="#DE003B"/>
<stop offset="1" stop-color="#FF3F9B"/>
</linearGradient>
<linearGradient id="paint3_linear_320_2623" x1="4.32552" y1="48.731" x2="4.32552" y2="50.6471" gradientUnits="userSpaceOnUse">
<stop offset="0.01" stop-color="#AA0075"/>
<stop offset="0.35" stop-color="#DE003B"/>
<stop offset="1" stop-color="#FF3F9B"/>
</linearGradient>
<linearGradient id="paint4_linear_320_2623" x1="52.6624" y1="11.9675" x2="52.6624" y2="13.8797" gradientUnits="userSpaceOnUse">
<stop offset="0.01" stop-color="#AA0075"/>
<stop offset="0.35" stop-color="#DE003B"/>
<stop offset="1" stop-color="#FF3F9B"/>
</linearGradient>
<linearGradient id="paint5_linear_320_2623" x1="52.6624" y1="11.9675" x2="52.6624" y2="13.8797" gradientUnits="userSpaceOnUse">
<stop offset="0.01" stop-color="#AA0075"/>
<stop offset="0.35" stop-color="#DE003B"/>
<stop offset="1" stop-color="#FF3F9B"/>
</linearGradient>
<linearGradient id="paint6_linear_320_2623" x1="50.5417" y1="4.66504" x2="50.5417" y2="9.54" gradientUnits="userSpaceOnUse">
<stop offset="0.01" stop-color="#AA0075"/>
<stop offset="0.35" stop-color="#DE003B"/>
<stop offset="1" stop-color="#FF3F9B"/>
</linearGradient>
<linearGradient id="paint7_linear_320_2623" x1="50.5417" y1="4.66504" x2="50.5417" y2="9.54" gradientUnits="userSpaceOnUse">
<stop offset="0.01" stop-color="#AA0075"/>
<stop offset="0.35" stop-color="#DE003B"/>
<stop offset="1" stop-color="#FF3F9B"/>
</linearGradient>
<linearGradient id="paint8_linear_320_2623" x1="6.49951" y1="53.0698" x2="6.49951" y2="58.0334" gradientUnits="userSpaceOnUse">
<stop offset="0.01" stop-color="#AA0075"/>
<stop offset="0.35" stop-color="#DE003B"/>
<stop offset="1" stop-color="#FF3F9B"/>
</linearGradient>
<linearGradient id="paint9_linear_320_2623" x1="6.49951" y1="53.0698" x2="6.49951" y2="58.0334" gradientUnits="userSpaceOnUse">
<stop offset="0.01" stop-color="#AA0075"/>
<stop offset="0.35" stop-color="#DE003B"/>
<stop offset="1" stop-color="#FF3F9B"/>
</linearGradient>
<linearGradient id="paint10_linear_320_2623" x1="44.863" y1="1.39868" x2="44.863" y2="7.66961" gradientUnits="userSpaceOnUse">
<stop offset="0.01" stop-color="#AA0075"/>
<stop offset="0.35" stop-color="#DE003B"/>
<stop offset="1" stop-color="#FF3F9B"/>
</linearGradient>
<linearGradient id="paint11_linear_320_2623" x1="44.863" y1="1.39868" x2="44.863" y2="7.66961" gradientUnits="userSpaceOnUse">
<stop offset="0.01" stop-color="#AA0075"/>
<stop offset="0.35" stop-color="#DE003B"/>
<stop offset="1" stop-color="#FF3F9B"/>
</linearGradient>
<linearGradient id="paint12_linear_320_2623" x1="12.1194" y1="54.9353" x2="12.1194" y2="61.2094" gradientUnits="userSpaceOnUse">
<stop offset="0.01" stop-color="#AA0075"/>
<stop offset="0.35" stop-color="#DE003B"/>
<stop offset="1" stop-color="#FF3F9B"/>
</linearGradient>
<linearGradient id="paint13_linear_320_2623" x1="12.1194" y1="54.9353" x2="12.1194" y2="61.2094" gradientUnits="userSpaceOnUse">
<stop offset="0.01" stop-color="#AA0075"/>
<stop offset="0.35" stop-color="#DE003B"/>
<stop offset="1" stop-color="#FF3F9B"/>
</linearGradient>
</defs>
</svg>
