<svg width="62" height="62" viewBox="0 0 62 62" fill="none" xmlns="http://www.w3.org/2000/svg">
<path d="M49.4809 18.2577C49.4873 16.7881 49.4044 15.3238 49.1665 13.8723C48.8276 11.8039 48.2678 9.80656 47.1906 7.98658C46.5989 6.9874 45.8776 6.09865 44.879 5.47641C43.9761 4.9147 43.003 4.66624 41.9418 4.91046C41.5285 5.00602 41.1833 4.89984 40.8625 4.62801C40.4259 4.25743 39.9967 3.86561 39.5165 3.55768C38.5307 2.92483 37.4259 2.85475 36.2946 3.00553C35.1483 3.15843 34.0627 3.52052 32.994 3.94525C32.4968 4.14275 31.9689 3.9272 31.7798 3.45681C31.5673 2.92908 31.7468 2.45126 32.2684 2.23146C33.4518 1.73346 34.6703 1.36075 35.9461 1.17281C37.019 1.0146 38.0803 1.03371 39.1256 1.32253C40.0689 1.58268 40.9028 2.05519 41.6071 2.73795C41.7941 2.91846 41.9736 2.98429 42.2392 2.96624C43.8507 2.85475 45.2338 3.43133 46.4608 4.43263C47.8248 5.54543 48.7681 6.97466 49.5075 8.54829C50.2479 10.124 50.7228 11.7848 51.0191 13.4943C51.4462 15.9556 51.5386 18.4361 51.29 20.9197C51.1392 22.4296 50.9416 23.9406 50.658 25.4303C50.266 27.4935 49.6881 29.5142 48.9689 31.4913C48.7394 32.121 48.51 32.7506 48.2656 33.3739C48.1669 33.6245 48.2125 33.8549 48.2816 34.096C48.5854 35.1557 48.8882 36.2154 49.1835 37.2772C49.261 37.5565 49.3821 37.7805 49.6233 37.9674C51.6608 39.5474 53.557 41.2782 55.2205 43.2543C56.9967 45.3641 58.4276 47.6842 59.4177 50.2623C60.0583 51.9315 60.5034 53.6538 60.7605 55.426C60.9782 56.9243 61.1121 58.4268 61.0866 59.942C61.0802 60.3051 60.9039 60.5621 60.6022 60.7352C60.2941 60.9114 59.9722 60.9136 59.6705 60.7235C59.3688 60.5334 59.2584 60.2138 59.2222 59.8868C59.1394 59.1499 59.0895 58.4087 59.0204 57.6707C58.9301 56.7034 58.894 55.7255 58.7261 54.7719C58.5487 53.759 58.297 52.7502 57.9847 51.7701C57.1741 49.2228 55.8112 46.9728 54.1381 44.9054C52.7379 43.1746 51.1487 41.6297 49.4331 40.2142C49.2217 40.0401 49.0018 39.8755 48.7989 39.6918C48.63 39.5378 48.5132 39.5378 48.3347 39.7014C46.0284 41.7985 43.5756 43.7055 40.8699 45.2611C39.6791 45.946 38.4287 46.5289 37.1922 47.1289C36.5357 47.4474 35.825 46.9409 35.841 46.2136C35.8463 45.9428 35.9897 45.7506 36.1958 45.6264C36.6483 45.3546 37.1072 45.087 37.5853 44.864C41.2013 43.1789 44.3606 40.8375 47.2681 38.1373C47.351 38.0608 47.4105 37.8803 47.3818 37.7752C47.1014 36.7463 46.7933 35.7237 46.5086 34.6948C46.4619 34.5239 46.379 34.4761 46.2218 34.4506C44.8801 34.234 43.5915 33.8517 42.3901 33.2019C41.4595 32.6986 40.6171 32.0774 39.8681 31.3299C39.3848 30.8478 39.423 30.2426 39.9531 29.8189C40.2123 29.6108 40.497 29.5864 40.7658 29.7563C41.0707 29.9484 41.3639 30.1661 41.6337 30.405C42.9828 31.5985 44.5667 32.277 46.328 32.5765C46.4884 32.6041 46.5872 32.586 46.6478 32.4045C47.0185 31.3012 47.4179 30.2086 47.7738 29.1011C48.0213 28.3292 48.2338 27.5445 48.4261 26.7566C48.6183 25.9676 48.7819 25.1713 48.9264 24.3728C49.2377 22.6579 49.4204 20.9271 49.482 19.1847C49.4926 18.8757 49.483 18.5656 49.483 18.2566L49.4809 18.2577Z" fill="url(#paint0_linear_320_2581)" stroke="url(#paint1_linear_320_2581)"/>
<path d="M13.3064 13.4168C13.4795 13.8575 13.6229 14.2419 13.7801 14.621C14.2996 15.8729 14.9402 17.0589 15.7773 18.1303C16.7227 19.3408 17.8541 20.3187 19.3169 20.8624C20.3994 21.2648 21.5254 21.4284 22.6525 21.2043C23.905 20.9548 25.1351 20.5959 26.3706 20.2667C27.4021 19.9917 28.4272 19.6933 29.4544 19.4024C30.3457 19.1497 31.237 18.8959 32.1261 18.6347C32.5574 18.5083 32.9366 18.5975 33.1852 18.9044C33.4402 19.2187 33.5135 19.671 33.2766 19.9874C33.13 20.1839 32.8867 20.3612 32.653 20.4313C31.3591 20.8157 30.0525 21.1565 28.7544 21.5271C27.6177 21.852 26.4906 22.2077 25.3529 22.5295C23.9899 22.9149 22.6164 23.2515 21.1791 23.1517C21.1175 23.1475 21.0559 23.1528 20.9942 23.157C20.9783 23.1581 20.9634 23.1708 20.9082 23.1974C21.0027 23.5403 21.0962 23.8929 21.1961 24.2433C21.5413 25.4654 21.8855 26.6876 22.235 27.9076C22.3805 28.4141 22.2053 28.8622 22.0162 29.3146C21.6359 30.2256 21.2651 31.1399 20.8795 32.0488C20.7945 32.2484 20.8657 32.3143 21.0484 32.3631C21.7729 32.5585 22.4953 32.7592 23.2166 32.9652C23.5268 33.0533 23.7435 33.2582 23.8338 33.5683C24.0346 34.2532 24.2088 34.9465 24.417 35.6293C24.673 36.4713 24.8865 37.3357 25.2371 38.1384C25.6323 39.0431 26.6956 39.5177 27.6528 39.2884C28.612 39.0579 29.5575 38.7659 30.5072 38.4984C31.5429 38.2064 32.5776 37.9112 33.6144 37.6202C33.9288 37.5321 34.2443 37.4461 34.563 37.376C35.2472 37.2252 35.6646 37.496 35.8505 38.1649C36.2245 39.5071 36.6197 40.8439 36.984 42.1882C37.0552 42.4505 37.0807 42.7478 37.0371 43.0133C36.9766 43.387 36.6133 43.6429 36.2107 43.6843C35.842 43.7236 35.5499 43.5824 35.3874 43.1948C35.2015 42.7499 35.0644 42.2827 34.9295 41.8176C34.7171 41.0903 34.5248 40.3566 34.323 39.626C34.2783 39.4646 34.1753 39.4285 34.0181 39.4742C33.3903 39.6547 32.7614 39.8278 32.1325 40.0051C31.2242 40.2621 30.3181 40.5243 29.4077 40.7749C28.8978 40.9151 28.3868 41.0627 27.8684 41.1614C26.1188 41.4938 24.1673 40.4681 23.4832 38.8169C23.1847 38.0959 22.9999 37.3272 22.7736 36.5764C22.5983 35.9935 22.4496 35.4031 22.2669 34.8234C22.235 34.7214 22.1054 34.6099 21.9981 34.577C21.2046 34.336 20.4057 34.1162 19.609 33.8858C19.4571 33.8422 19.3041 33.7944 19.1596 33.7286C18.5786 33.4674 18.4606 33.1266 18.7368 32.4151C19.1161 31.4372 19.5176 30.4677 19.9086 29.4951C20.0435 29.1595 20.2049 28.8314 20.2974 28.4842C20.3505 28.2857 20.3261 28.0467 20.2719 27.8439C19.9861 26.7885 19.6791 25.7383 19.3806 24.6871C19.2138 24.102 19.0587 23.5127 18.876 22.933C18.8367 22.8066 18.722 22.6558 18.6062 22.6102C16.8066 21.903 15.4172 20.6787 14.2444 19.1805C13.1258 17.7512 12.2717 16.1702 11.6715 14.4617C11.3708 13.6058 11.1403 12.7256 10.8939 11.8517C10.7781 11.4408 10.9544 11.0288 11.2975 10.8143C11.6747 10.5786 12.0868 10.5913 12.4193 10.9162C13.1768 11.6563 14.0808 11.7083 15.0379 11.5108C16.591 11.1902 17.9752 10.4564 19.3179 9.65795C21.3575 8.44428 23.3653 7.17645 25.3847 5.92986C25.918 5.60069 26.2696 5.58795 26.6255 5.89376C27.1269 6.32486 27.1131 7.0108 26.5681 7.38563C26.0519 7.74028 25.5165 8.06626 24.9811 8.39225C23.2028 9.47638 21.4308 10.5701 19.6387 11.6298C18.5435 12.2775 17.3909 12.8137 16.165 13.1758C15.3354 13.4211 14.4876 13.5273 13.6219 13.4381C13.5454 13.4306 13.4678 13.4264 13.3085 13.4158L13.3064 13.4168Z" fill="url(#paint2_linear_320_2581)" stroke="url(#paint3_linear_320_2581)"/>
<path d="M33.2414 50.564C33.5442 49.7698 34.0764 49.2102 34.871 48.8917C36.3954 48.28 38.2513 49.2686 38.5487 50.8752C38.6156 51.2372 38.6528 51.6099 38.6571 51.9784C38.6698 53.2165 38.6719 54.4546 38.6571 55.6916C38.6443 56.6855 38.5423 57.6677 38.0845 58.5756C37.6808 59.3762 37.0997 60.0398 36.4475 60.6398C36.0788 60.9785 35.5594 60.9381 35.2056 60.5888C34.8476 60.2352 34.8136 59.7361 35.1313 59.3454C35.2651 59.1819 35.4107 59.0247 35.5657 58.8824C36.3922 58.1243 36.7555 57.1644 36.7693 56.0675C36.7885 54.6086 36.7916 53.1496 36.7768 51.6906C36.7747 51.457 36.6812 51.2043 36.5675 50.9951C36.3975 50.683 36.098 50.5439 35.7389 50.5948C35.4043 50.6426 35.1727 50.8486 35.0527 51.1534C34.9804 51.3381 34.9326 51.5462 34.9316 51.7437C34.922 52.6983 34.9369 53.6529 34.9305 54.6075C34.9284 54.8613 34.9167 55.1235 34.8487 55.3656C34.7297 55.7904 34.4652 55.9815 34.0392 55.9996C33.6398 56.0165 33.3222 55.8509 33.1596 55.4835C32.8601 54.8071 32.5871 54.118 32.3002 53.4352C31.9794 52.6718 31.6724 51.9009 31.325 51.1491C31.1051 50.6755 31.2294 50.2328 31.3431 49.7815C31.6671 48.4988 32.0123 47.2214 32.3183 45.9345C32.3937 45.6159 32.3629 45.2687 32.3629 44.9353C32.3629 44.8365 32.3215 44.7165 32.2567 44.6443C32.1324 44.5063 31.9784 44.3948 31.836 44.2727C31.7595 44.4044 31.6639 44.5297 31.6108 44.6709C31.0361 46.1872 30.4678 47.7067 29.8984 49.2261C29.7369 49.6551 29.5722 50.083 29.4225 50.5163C29.3874 50.6182 29.3821 50.7424 29.4023 50.8486C29.7284 52.5295 30.0588 54.2104 30.3934 55.8891C30.6441 57.1442 30.9044 58.3972 31.1593 59.6512C31.2443 60.0685 31.1444 60.4316 30.7896 60.6833C30.4784 60.9042 30.1087 60.97 29.7985 60.7406C29.5956 60.5899 29.4203 60.3318 29.3481 60.0887C29.1845 59.5408 29.0815 58.9738 28.9752 58.4099C28.7819 57.3863 28.6109 56.3585 28.4154 55.3359C28.2178 54.2953 28.0043 53.2579 27.7939 52.2205C27.7153 51.8319 27.6537 51.4347 27.5294 51.0599C27.4019 50.6755 27.471 50.3315 27.6038 49.9779C28.4164 47.816 29.2281 45.6541 30.0407 43.4922C30.1183 43.2862 30.1937 43.0792 30.2744 42.8732C30.5039 42.2892 31.0393 42.0375 31.7372 42.2127C32.7751 42.4729 33.5846 43.0367 34.0435 44.0327C34.274 44.5339 34.3781 45.068 34.2708 45.6074C34.1072 46.4282 33.8969 47.2394 33.7025 48.0539C33.5229 48.8088 33.336 49.5617 33.1586 50.3177C33.1405 50.3963 33.1639 50.4844 33.1681 50.5672C33.1947 50.5672 33.2212 50.5672 33.2467 50.5662L33.2414 50.564Z" fill="url(#paint4_linear_320_2581)" stroke="url(#paint5_linear_320_2581)"/>
<path d="M41.4531 55.4018C41.4531 53.9959 41.4223 52.589 41.4606 51.1852C41.5084 49.4438 42.2095 47.9668 43.4662 46.7712C44.9194 45.3887 46.6797 44.7835 48.6598 45.0033C51.0149 45.2645 52.7444 46.5089 53.8385 48.6145C54.3208 49.5426 54.5195 50.546 54.5258 51.5813C54.5439 54.3219 54.5439 57.0625 54.5481 59.8041C54.5481 60.3393 54.3229 60.6345 53.8247 60.7704C53.2999 60.9137 52.7454 60.541 52.6859 59.9995C52.6721 59.8774 52.6764 59.7521 52.6764 59.6289C52.6679 56.9584 52.6689 54.289 52.6498 51.6185C52.6381 49.9769 51.9922 48.64 50.6442 47.6727C48.1467 45.8803 44.5115 47.0866 43.5501 50.014C43.3642 50.5779 43.3111 51.1502 43.3132 51.7363C43.3217 54.4334 43.327 57.1294 43.3355 59.8264C43.3366 60.249 43.2091 60.5867 42.7959 60.7715C42.15 61.0603 41.4723 60.6462 41.4669 59.9379C41.4563 58.4259 41.4638 56.9138 41.4638 55.4018H41.4521H41.4531Z" fill="url(#paint6_linear_320_2581)" stroke="url(#paint7_linear_320_2581)"/>
<path d="M12.8159 42.1788C14.2489 42.1788 15.682 42.1746 17.115 42.181C17.8884 42.1842 18.3144 42.8637 17.985 43.5592C17.8395 43.8672 17.5792 44.0169 17.2489 44.0445C17.0821 44.0583 16.9132 44.0509 16.7453 44.0509C14.1002 44.0509 11.4551 44.0487 8.80994 44.053C7.68283 44.0551 6.84786 44.9163 6.8946 46.0365C6.94984 47.3585 8.16724 47.9297 9.10951 47.728C10.107 47.5146 10.5734 46.9327 10.6244 45.9069C10.652 45.3463 11.0323 44.98 11.5794 44.9885C12.1201 44.9969 12.4887 45.3824 12.494 45.9462C12.5099 47.642 11.2256 49.1901 9.58648 49.5618C7.82731 49.961 6.00439 48.9852 5.30434 47.3701C4.47043 45.4461 5.50724 43.0453 7.51286 42.4071C7.9431 42.2702 8.40945 42.198 8.86199 42.1884C10.1792 42.1597 11.4976 42.1788 12.8159 42.1788Z" fill="url(#paint8_linear_320_2581)" stroke="url(#paint9_linear_320_2581)"/>
<path d="M12.8256 36.5766C11.4988 36.5766 10.173 36.5882 8.84623 36.5734C7.19222 36.5543 6.00032 35.7897 5.31088 34.2841C4.44617 32.3961 5.52759 29.99 7.48542 29.3211C9.41031 28.6627 11.3926 29.5387 12.2212 31.4277C12.4634 31.9788 12.6259 32.5639 12.4007 33.1745C12.2382 33.6151 11.8876 33.8264 11.4266 33.7648C11.0155 33.7096 10.666 33.3454 10.6288 32.926C10.615 32.7763 10.6224 32.6234 10.5958 32.4768C10.4492 31.6603 9.84267 31.1081 8.97902 30.9977C8.18441 30.8958 7.40468 31.3046 7.06581 31.999C6.46667 33.2286 7.37069 34.6939 8.75062 34.6992C11.4128 34.7099 14.0738 34.7024 16.736 34.7035C16.8868 34.7035 17.0366 34.7014 17.1864 34.7067C17.725 34.7258 18.0946 35.1112 18.0925 35.6453C18.0904 36.1752 17.7133 36.5691 17.1747 36.5712C15.7246 36.5787 14.2746 36.5734 12.8235 36.5734L12.8256 36.5766Z" fill="url(#paint10_linear_320_2581)" stroke="url(#paint11_linear_320_2581)"/>
<path d="M42.3846 24.7136C42.3432 25.941 42.0011 27.1473 40.9962 28.0796C40.4363 28.5999 39.7766 28.9535 39.0288 29.1138C38.505 29.2253 38.0769 28.9566 37.959 28.4916C37.8167 27.933 38.0175 27.5189 38.5539 27.3363C39.2816 27.0878 39.9009 26.7162 40.2313 25.9846C40.4884 25.4154 40.5659 24.8144 40.4947 24.1986C40.3938 23.3151 40.1899 22.4582 39.6938 21.7022C39.4271 21.2977 39.0978 20.9419 38.6092 20.8198C37.7752 20.6106 37.1687 21.1819 37.2112 22.1248C37.2218 22.3701 37.2653 22.6164 37.3185 22.8575C37.4247 23.3427 37.1793 23.8068 36.7214 23.9533C36.202 24.12 35.6899 23.9023 35.5359 23.4011C35.2544 22.4848 35.2034 21.562 35.5986 20.6563C36.0862 19.5393 37.1272 18.8735 38.35 18.9107C39.7193 18.9521 40.6573 19.6996 41.3457 20.806C42.0064 21.87 42.3846 23.3289 42.3846 24.7125V24.7136Z" fill="url(#paint12_linear_320_2581)" stroke="url(#paint13_linear_320_2581)"/>
<path d="M17.182 40.3132C15.9433 40.3132 14.7058 40.3185 13.4671 40.311C12.7076 40.3068 12.289 39.64 12.6035 38.9487C12.7639 38.5951 13.0613 38.4475 13.4352 38.4454C14.2309 38.4401 15.0276 38.4433 15.8233 38.4433C17.5039 38.4433 19.1844 38.439 20.865 38.4454C21.6235 38.4486 22.0441 39.1175 21.7286 39.8088C21.5629 40.1719 21.2549 40.3132 20.8703 40.3142C19.6412 40.3142 18.4111 40.3142 17.182 40.3142V40.3132Z" fill="url(#paint14_linear_320_2581)" stroke="url(#paint15_linear_320_2581)"/>
<path d="M2.22458 40.3096C1.6828 40.3128 1.28231 39.9189 1.28125 39.3816C1.28019 38.8433 1.67855 38.444 2.21608 38.4451C2.74511 38.4451 3.1371 38.8316 3.14453 39.3604C3.15197 39.904 2.7621 40.3075 2.22458 40.3096Z" fill="url(#paint16_linear_320_2581)" stroke="url(#paint17_linear_320_2581)"/>
<path d="M41.4621 39.3725C41.4632 39.914 41.0701 40.3079 40.5283 40.3069C39.9866 40.3069 39.5946 39.9119 39.5967 39.3704C39.5988 38.8437 39.9887 38.454 40.5177 38.4497C41.0627 38.4455 41.461 38.8352 41.4632 39.3735L41.4621 39.3725Z" fill="url(#paint18_linear_320_2581)" stroke="url(#paint19_linear_320_2581)"/>
<path d="M29.3195 5.7495C28.7799 5.75163 28.3847 5.35556 28.3857 4.81509C28.3857 4.28311 28.7714 3.89024 29.2972 3.88387C29.8422 3.8775 30.2395 4.26506 30.2437 4.80447C30.248 5.34707 29.857 5.74738 29.3195 5.74844V5.7495Z" fill="url(#paint20_linear_320_2581)" stroke="url(#paint21_linear_320_2581)"/>
<path d="M33.0611 32.8368C32.5182 32.84 32.123 32.4482 32.123 31.9056C32.123 31.363 32.5161 30.9701 33.0579 30.9712C33.5858 30.9723 33.9768 31.3598 33.9831 31.8886C33.9895 32.4312 33.5986 32.8336 33.0621 32.8368H33.0611Z" fill="url(#paint22_linear_320_2581)" stroke="url(#paint23_linear_320_2581)"/>
<path d="M25.5684 31.9033C25.0309 31.9001 24.6432 31.4998 24.6485 30.955C24.6549 30.4156 25.0532 30.0312 25.5993 30.0387C26.124 30.0461 26.5075 30.4411 26.5065 30.9731C26.5065 31.5146 26.1102 31.9064 25.5674 31.9033H25.5684Z" fill="url(#paint24_linear_320_2581)" stroke="url(#paint25_linear_320_2581)"/>
<path d="M29.3068 30.0387C29.8496 30.0365 30.2426 30.4273 30.2437 30.9688C30.2437 31.5104 29.8496 31.9054 29.3099 31.9032C28.782 31.9011 28.3921 31.5135 28.3868 30.9848C28.3804 30.4411 28.7703 30.0397 29.3078 30.0376L29.3068 30.0387Z" fill="url(#paint26_linear_320_2581)" stroke="url(#paint27_linear_320_2581)"/>
<path d="M5.95198 40.3097C5.41233 40.3097 5.02034 39.9136 5.02247 39.371C5.02459 38.8316 5.4219 38.4409 5.96473 38.4451C6.49057 38.4493 6.87831 38.8401 6.8815 39.371C6.88469 39.9136 6.49163 40.3107 5.95198 40.3107V40.3097Z" fill="url(#paint28_linear_320_2581)" stroke="url(#paint29_linear_320_2581)"/>
<path d="M9.69884 38.4451C10.2364 38.4483 10.6262 38.8496 10.6188 39.3933C10.6114 39.9232 10.2226 40.3086 9.69353 40.3097C9.15176 40.3107 8.75871 39.9178 8.75977 39.3753C8.75977 38.8348 9.15601 38.4419 9.69778 38.4451H9.69884Z" fill="url(#paint30_linear_320_2581)" stroke="url(#paint31_linear_320_2581)"/>
<path d="M39.5939 36.5638C39.5971 37.1074 39.2072 37.5014 38.6665 37.5035C38.1248 37.5056 37.7285 37.1117 37.7285 36.5723C37.7285 36.0435 38.1152 35.6527 38.6432 35.6463C39.1902 35.6389 39.5897 36.0254 39.5939 36.5638Z" fill="url(#paint32_linear_320_2581)" stroke="url(#paint33_linear_320_2581)"/>
<path d="M36.7883 33.7605C36.7914 34.3041 36.4026 34.6991 35.8609 34.7012C35.318 34.7034 34.9229 34.3116 34.9229 33.7711C34.9229 33.2423 35.3085 32.8515 35.8375 32.8441C36.3825 32.8367 36.7851 33.2242 36.7883 33.7615V33.7605Z" fill="url(#paint34_linear_320_2581)" stroke="url(#paint35_linear_320_2581)"/>
<path d="M21.838 43.1139C21.838 43.6544 21.4418 44.0441 20.8979 44.0409C20.3561 44.0377 19.9684 43.6417 19.9737 43.098C19.9779 42.5713 20.3689 42.1869 20.9011 42.1848C21.445 42.1827 21.8391 42.5745 21.8391 43.1139H21.838Z" fill="url(#paint36_linear_320_2581)" stroke="url(#paint37_linear_320_2581)"/>
<defs>
<linearGradient id="paint0_linear_320_2581" x1="46.391" y1="1.07397" x2="46.391" y2="60.8667" gradientUnits="userSpaceOnUse">
<stop offset="0.01" stop-color="#AA0075"/>
<stop offset="0.35" stop-color="#DE003B"/>
<stop offset="1" stop-color="#FF3F9B"/>
</linearGradient>
<linearGradient id="paint1_linear_320_2581" x1="46.391" y1="1.07397" x2="46.391" y2="60.8667" gradientUnits="userSpaceOnUse">
<stop offset="0.01" stop-color="#AA0075"/>
<stop offset="0.35" stop-color="#DE003B"/>
<stop offset="1" stop-color="#FF3F9B"/>
</linearGradient>
<linearGradient id="paint2_linear_320_2581" x1="23.9585" y1="5.67334" x2="23.9585" y2="43.6907" gradientUnits="userSpaceOnUse">
<stop offset="0.01" stop-color="#AA0075"/>
<stop offset="0.35" stop-color="#DE003B"/>
<stop offset="1" stop-color="#FF3F9B"/>
</linearGradient>
<linearGradient id="paint3_linear_320_2581" x1="23.9585" y1="5.67334" x2="23.9585" y2="43.6907" gradientUnits="userSpaceOnUse">
<stop offset="0.01" stop-color="#AA0075"/>
<stop offset="0.35" stop-color="#DE003B"/>
<stop offset="1" stop-color="#FF3F9B"/>
</linearGradient>
<linearGradient id="paint4_linear_320_2581" x1="33.0647" y1="42.158" x2="33.0647" y2="60.8839" gradientUnits="userSpaceOnUse">
<stop offset="0.01" stop-color="#AA0075"/>
<stop offset="0.35" stop-color="#DE003B"/>
<stop offset="1" stop-color="#FF3F9B"/>
</linearGradient>
<linearGradient id="paint5_linear_320_2581" x1="33.0647" y1="42.158" x2="33.0647" y2="60.8839" gradientUnits="userSpaceOnUse">
<stop offset="0.01" stop-color="#AA0075"/>
<stop offset="0.35" stop-color="#DE003B"/>
<stop offset="1" stop-color="#FF3F9B"/>
</linearGradient>
<linearGradient id="paint6_linear_320_2581" x1="47.9948" y1="44.9592" x2="47.9948" y2="60.8644" gradientUnits="userSpaceOnUse">
<stop offset="0.01" stop-color="#AA0075"/>
<stop offset="0.35" stop-color="#DE003B"/>
<stop offset="1" stop-color="#FF3F9B"/>
</linearGradient>
<linearGradient id="paint7_linear_320_2581" x1="47.9948" y1="44.9592" x2="47.9948" y2="60.8644" gradientUnits="userSpaceOnUse">
<stop offset="0.01" stop-color="#AA0075"/>
<stop offset="0.35" stop-color="#DE003B"/>
<stop offset="1" stop-color="#FF3F9B"/>
</linearGradient>
<linearGradient id="paint8_linear_320_2581" x1="11.556" y1="42.1726" x2="11.556" y2="49.6511" gradientUnits="userSpaceOnUse">
<stop offset="0.01" stop-color="#AA0075"/>
<stop offset="0.35" stop-color="#DE003B"/>
<stop offset="1" stop-color="#FF3F9B"/>
</linearGradient>
<linearGradient id="paint9_linear_320_2581" x1="11.556" y1="42.1726" x2="11.556" y2="49.6511" gradientUnits="userSpaceOnUse">
<stop offset="0.01" stop-color="#AA0075"/>
<stop offset="0.35" stop-color="#DE003B"/>
<stop offset="1" stop-color="#FF3F9B"/>
</linearGradient>
<linearGradient id="paint10_linear_320_2581" x1="11.5511" y1="29.1038" x2="11.5511" y2="36.5809" gradientUnits="userSpaceOnUse">
<stop offset="0.01" stop-color="#AA0075"/>
<stop offset="0.35" stop-color="#DE003B"/>
<stop offset="1" stop-color="#FF3F9B"/>
</linearGradient>
<linearGradient id="paint11_linear_320_2581" x1="11.5511" y1="29.1038" x2="11.5511" y2="36.5809" gradientUnits="userSpaceOnUse">
<stop offset="0.01" stop-color="#AA0075"/>
<stop offset="0.35" stop-color="#DE003B"/>
<stop offset="1" stop-color="#FF3F9B"/>
</linearGradient>
<linearGradient id="paint12_linear_320_2581" x1="38.849" y1="18.9092" x2="38.849" y2="29.1389" gradientUnits="userSpaceOnUse">
<stop offset="0.01" stop-color="#AA0075"/>
<stop offset="0.35" stop-color="#DE003B"/>
<stop offset="1" stop-color="#FF3F9B"/>
</linearGradient>
<linearGradient id="paint13_linear_320_2581" x1="38.849" y1="18.9092" x2="38.849" y2="29.1389" gradientUnits="userSpaceOnUse">
<stop offset="0.01" stop-color="#AA0075"/>
<stop offset="0.35" stop-color="#DE003B"/>
<stop offset="1" stop-color="#FF3F9B"/>
</linearGradient>
<linearGradient id="paint14_linear_320_2581" x1="17.1662" y1="38.4419" x2="17.1662" y2="40.315" gradientUnits="userSpaceOnUse">
<stop offset="0.01" stop-color="#AA0075"/>
<stop offset="0.35" stop-color="#DE003B"/>
<stop offset="1" stop-color="#FF3F9B"/>
</linearGradient>
<linearGradient id="paint15_linear_320_2581" x1="17.1662" y1="38.4419" x2="17.1662" y2="40.315" gradientUnits="userSpaceOnUse">
<stop offset="0.01" stop-color="#AA0075"/>
<stop offset="0.35" stop-color="#DE003B"/>
<stop offset="1" stop-color="#FF3F9B"/>
</linearGradient>
<linearGradient id="paint16_linear_320_2581" x1="2.21294" y1="38.4451" x2="2.21294" y2="40.3097" gradientUnits="userSpaceOnUse">
<stop offset="0.01" stop-color="#AA0075"/>
<stop offset="0.35" stop-color="#DE003B"/>
<stop offset="1" stop-color="#FF3F9B"/>
</linearGradient>
<linearGradient id="paint17_linear_320_2581" x1="2.21294" y1="38.4451" x2="2.21294" y2="40.3097" gradientUnits="userSpaceOnUse">
<stop offset="0.01" stop-color="#AA0075"/>
<stop offset="0.35" stop-color="#DE003B"/>
<stop offset="1" stop-color="#FF3F9B"/>
</linearGradient>
<linearGradient id="paint18_linear_320_2581" x1="40.5299" y1="38.4497" x2="40.5299" y2="40.3069" gradientUnits="userSpaceOnUse">
<stop offset="0.01" stop-color="#AA0075"/>
<stop offset="0.35" stop-color="#DE003B"/>
<stop offset="1" stop-color="#FF3F9B"/>
</linearGradient>
<linearGradient id="paint19_linear_320_2581" x1="40.5299" y1="38.4497" x2="40.5299" y2="40.3069" gradientUnits="userSpaceOnUse">
<stop offset="0.01" stop-color="#AA0075"/>
<stop offset="0.35" stop-color="#DE003B"/>
<stop offset="1" stop-color="#FF3F9B"/>
</linearGradient>
<linearGradient id="paint20_linear_320_2581" x1="29.3147" y1="3.88379" x2="29.3147" y2="5.74951" gradientUnits="userSpaceOnUse">
<stop offset="0.01" stop-color="#AA0075"/>
<stop offset="0.35" stop-color="#DE003B"/>
<stop offset="1" stop-color="#FF3F9B"/>
</linearGradient>
<linearGradient id="paint21_linear_320_2581" x1="29.3147" y1="3.88379" x2="29.3147" y2="5.74951" gradientUnits="userSpaceOnUse">
<stop offset="0.01" stop-color="#AA0075"/>
<stop offset="0.35" stop-color="#DE003B"/>
<stop offset="1" stop-color="#FF3F9B"/>
</linearGradient>
<linearGradient id="paint22_linear_320_2581" x1="33.0531" y1="30.9712" x2="33.0531" y2="32.8368" gradientUnits="userSpaceOnUse">
<stop offset="0.01" stop-color="#AA0075"/>
<stop offset="0.35" stop-color="#DE003B"/>
<stop offset="1" stop-color="#FF3F9B"/>
</linearGradient>
<linearGradient id="paint23_linear_320_2581" x1="33.0531" y1="30.9712" x2="33.0531" y2="32.8368" gradientUnits="userSpaceOnUse">
<stop offset="0.01" stop-color="#AA0075"/>
<stop offset="0.35" stop-color="#DE003B"/>
<stop offset="1" stop-color="#FF3F9B"/>
</linearGradient>
<linearGradient id="paint24_linear_320_2581" x1="25.5774" y1="30.0386" x2="25.5774" y2="31.9033" gradientUnits="userSpaceOnUse">
<stop offset="0.01" stop-color="#AA0075"/>
<stop offset="0.35" stop-color="#DE003B"/>
<stop offset="1" stop-color="#FF3F9B"/>
</linearGradient>
<linearGradient id="paint25_linear_320_2581" x1="25.5774" y1="30.0386" x2="25.5774" y2="31.9033" gradientUnits="userSpaceOnUse">
<stop offset="0.01" stop-color="#AA0075"/>
<stop offset="0.35" stop-color="#DE003B"/>
<stop offset="1" stop-color="#FF3F9B"/>
</linearGradient>
<linearGradient id="paint26_linear_320_2581" x1="29.3152" y1="30.0376" x2="29.3152" y2="31.9032" gradientUnits="userSpaceOnUse">
<stop offset="0.01" stop-color="#AA0075"/>
<stop offset="0.35" stop-color="#DE003B"/>
<stop offset="1" stop-color="#FF3F9B"/>
</linearGradient>
<linearGradient id="paint27_linear_320_2581" x1="29.3152" y1="30.0376" x2="29.3152" y2="31.9032" gradientUnits="userSpaceOnUse">
<stop offset="0.01" stop-color="#AA0075"/>
<stop offset="0.35" stop-color="#DE003B"/>
<stop offset="1" stop-color="#FF3F9B"/>
</linearGradient>
<linearGradient id="paint28_linear_320_2581" x1="5.95199" y1="38.4451" x2="5.95199" y2="40.3107" gradientUnits="userSpaceOnUse">
<stop offset="0.01" stop-color="#AA0075"/>
<stop offset="0.35" stop-color="#DE003B"/>
<stop offset="1" stop-color="#FF3F9B"/>
</linearGradient>
<linearGradient id="paint29_linear_320_2581" x1="5.95199" y1="38.4451" x2="5.95199" y2="40.3107" gradientUnits="userSpaceOnUse">
<stop offset="0.01" stop-color="#AA0075"/>
<stop offset="0.35" stop-color="#DE003B"/>
<stop offset="1" stop-color="#FF3F9B"/>
</linearGradient>
<linearGradient id="paint30_linear_320_2581" x1="9.68933" y1="38.4451" x2="9.68933" y2="40.3097" gradientUnits="userSpaceOnUse">
<stop offset="0.01" stop-color="#AA0075"/>
<stop offset="0.35" stop-color="#DE003B"/>
<stop offset="1" stop-color="#FF3F9B"/>
</linearGradient>
<linearGradient id="paint31_linear_320_2581" x1="9.68933" y1="38.4451" x2="9.68933" y2="40.3097" gradientUnits="userSpaceOnUse">
<stop offset="0.01" stop-color="#AA0075"/>
<stop offset="0.35" stop-color="#DE003B"/>
<stop offset="1" stop-color="#FF3F9B"/>
</linearGradient>
<linearGradient id="paint32_linear_320_2581" x1="38.6612" y1="35.6462" x2="38.6612" y2="37.5035" gradientUnits="userSpaceOnUse">
<stop offset="0.01" stop-color="#AA0075"/>
<stop offset="0.35" stop-color="#DE003B"/>
<stop offset="1" stop-color="#FF3F9B"/>
</linearGradient>
<linearGradient id="paint33_linear_320_2581" x1="38.6612" y1="35.6462" x2="38.6612" y2="37.5035" gradientUnits="userSpaceOnUse">
<stop offset="0.01" stop-color="#AA0075"/>
<stop offset="0.35" stop-color="#DE003B"/>
<stop offset="1" stop-color="#FF3F9B"/>
</linearGradient>
<linearGradient id="paint34_linear_320_2581" x1="35.8556" y1="32.844" x2="35.8556" y2="34.7013" gradientUnits="userSpaceOnUse">
<stop offset="0.01" stop-color="#AA0075"/>
<stop offset="0.35" stop-color="#DE003B"/>
<stop offset="1" stop-color="#FF3F9B"/>
</linearGradient>
<linearGradient id="paint35_linear_320_2581" x1="35.8556" y1="32.844" x2="35.8556" y2="34.7013" gradientUnits="userSpaceOnUse">
<stop offset="0.01" stop-color="#AA0075"/>
<stop offset="0.35" stop-color="#DE003B"/>
<stop offset="1" stop-color="#FF3F9B"/>
</linearGradient>
<linearGradient id="paint36_linear_320_2581" x1="20.9064" y1="42.1848" x2="20.9064" y2="44.0409" gradientUnits="userSpaceOnUse">
<stop offset="0.01" stop-color="#AA0075"/>
<stop offset="0.35" stop-color="#DE003B"/>
<stop offset="1" stop-color="#FF3F9B"/>
</linearGradient>
<linearGradient id="paint37_linear_320_2581" x1="20.9064" y1="42.1848" x2="20.9064" y2="44.0409" gradientUnits="userSpaceOnUse">
<stop offset="0.01" stop-color="#AA0075"/>
<stop offset="0.35" stop-color="#DE003B"/>
<stop offset="1" stop-color="#FF3F9B"/>
</linearGradient>
</defs>
</svg>
