<svg width="48" height="57" viewBox="0 0 48 57" fill="none" xmlns="http://www.w3.org/2000/svg">
<path d="M23.5844 55.9637C18.3511 55.9637 13.1162 55.9637 7.88286 55.9637C7.73566 55.9637 7.58677 55.95 7.43957 55.9654C6.4616 56.0715 5.90325 55.6471 5.51917 54.7112C3.9727 50.9398 2.79677 47.0555 1.91863 43.0753C1.28922 40.2229 0.834074 37.3396 0.549822 34.4323C0.301101 31.8827 0.15559 29.3228 0.296025 26.7613C0.50583 22.9146 1.40935 19.2271 2.88475 15.6799C3.76797 13.558 4.67487 11.4482 5.5344 9.3161C6.19088 7.6888 6.61219 5.99476 6.66971 4.22715C6.68663 3.71723 6.62911 3.20559 6.60711 2.69396C6.56481 1.70834 6.94212 1.28911 7.92686 1.23435C8.13666 1.22237 8.34816 1.22579 8.55966 1.22579C18.5846 1.22579 28.6096 1.22579 38.6346 1.22579C38.8461 1.22579 39.0576 1.22237 39.2674 1.23435C40.2183 1.29424 40.6058 1.79047 40.5482 2.74187C40.5026 3.50333 40.5026 4.27335 40.5482 5.03652C40.6328 6.45335 41.0101 7.812 41.5364 9.11761C42.4433 11.3678 43.4111 13.5906 44.3281 15.8356C45.4431 18.5649 46.2468 21.3883 46.6208 24.3212C46.9135 26.6107 47.0099 28.9122 46.8103 31.2188C46.6427 33.1507 46.4972 35.086 46.2739 37.011C45.8898 40.3187 45.1876 43.5647 44.318 46.7748C43.6107 49.3878 42.7664 51.9528 41.7157 54.4476C41.5922 54.742 41.4687 55.0363 41.3282 55.3237C41.1573 55.6728 40.8748 55.885 40.4856 55.9175C40.1709 55.9449 39.8545 55.9586 39.5381 55.9586C34.2202 55.9603 28.9006 55.9603 23.5827 55.9603L23.5844 55.9637ZM3.88302 19.2835C17.0737 17.3585 30.0935 17.3517 43.1996 19.2681C42.9508 18.5563 42.763 17.9283 42.5177 17.326C41.6869 15.3 40.8308 13.2843 39.9933 11.26C39.1862 9.30755 38.5212 7.31235 38.3216 5.18881C38.2708 4.64296 38.2556 4.09539 38.2218 3.529H8.94204C8.9302 3.66076 8.91159 3.76343 8.91159 3.86438C8.92343 5.50024 8.66963 7.10701 8.12143 8.63335C7.41926 10.5943 6.59188 12.5091 5.81865 14.4427C5.196 16.0016 4.57166 17.5587 3.88302 19.2801V19.2835ZM3.10133 36.9357C3.93378 42.7742 5.34151 48.3234 7.50724 53.6468H22.4576C22.4576 53.3457 22.4576 53.0941 22.4576 52.8409C22.4576 47.3789 22.4356 41.9169 22.4779 36.4549C22.4863 35.4248 22.2698 34.5247 21.725 33.6829C21.6556 33.5751 21.593 33.4638 21.5253 33.356C20.0042 30.9108 17.8486 29.2116 15.2988 28.0018C11.392 26.147 7.23484 25.4779 2.95582 25.4095C2.87629 25.4095 2.79508 25.4403 2.67495 25.4659C2.64111 25.7876 2.60389 26.1025 2.57512 26.419C2.42454 28.1028 2.4753 29.7849 2.56497 31.4686C2.59204 31.9871 2.63265 32.4816 2.92198 32.9334C3.12671 33.2534 3.20623 33.6469 3.01504 33.972C2.68341 34.5384 2.87629 35.0723 2.96089 35.6558C3.70536 34.9063 4.19773 34.8961 4.94559 35.5891C5.1317 35.7619 5.32121 35.933 5.49548 36.1195C5.95401 36.6123 5.98785 37.2095 5.59362 37.6733C5.174 38.1661 4.57166 38.2088 4.01669 37.7657C3.72059 37.5295 3.45157 37.2592 3.09964 36.9409L3.10133 36.9357ZM44.4466 25.4043C44.2046 25.4043 43.9762 25.4009 43.7478 25.4043C41.5279 25.4454 39.3317 25.7157 37.1677 26.1983C34.518 26.7886 31.9868 27.7058 29.7043 29.2322C27.6181 30.6267 25.9701 32.4132 24.9143 34.7249C24.8027 34.9679 24.7231 35.252 24.7215 35.5172C24.7113 41.4275 24.713 47.3378 24.7164 53.2498C24.7164 53.3884 24.7621 53.527 24.7874 53.6639H39.6126C41.2064 50.5856 44.01 39.896 43.9846 37.0059C43.6598 37.2917 43.3552 37.5877 43.0236 37.8478C42.6751 38.1199 42.2808 38.1455 41.8951 37.9282C41.5177 37.716 41.3062 37.3841 41.3046 36.9392C41.3029 36.2034 42.5786 34.9987 43.2977 35.1151C43.6192 35.1664 43.9119 35.3991 44.2249 35.5549C44.2588 35.1373 44.4939 34.6616 44.2384 34.1842C43.9897 33.7222 44.0371 33.2961 44.2807 32.8512C44.411 32.6134 44.5447 32.3447 44.5616 32.0829C44.6885 30.0381 44.7731 27.9916 44.565 25.9468C44.5481 25.7808 44.4956 25.6199 44.4466 25.4043ZM3.00827 23.0532C4.5835 23.1918 6.05722 23.2842 7.52078 23.457C10.3599 23.7924 13.1145 24.4854 15.732 25.6695C18.879 27.0949 21.5388 29.1209 23.3983 32.1154C23.4474 32.1942 23.5354 32.2472 23.554 32.2643C24.3323 31.3146 25.0311 30.3444 25.8483 29.4923C27.7907 27.4663 30.1646 26.099 32.7634 25.1237C35.9714 23.919 39.2996 23.3304 42.7123 23.1832C43.1843 23.1627 43.6564 23.1199 44.1826 23.084C44.054 22.5262 43.9457 22.059 43.8442 21.6158C30.2931 19.5368 16.8368 19.5368 3.31113 21.6244C3.213 22.0881 3.11317 22.5553 3.00827 23.0532Z" fill="url(#paint0_linear_320_2613)" stroke="url(#paint1_linear_320_2613)" stroke-width="0.5"/>
<path d="M16.0178 41.2074C15.3664 41.2776 14.8452 40.8344 14.764 40.2081C14.6862 39.6109 15.1126 39.0924 15.7843 38.9744C16.1142 38.9162 16.4475 38.8631 16.7825 38.8392C17.4255 38.793 17.9297 39.1797 18.0194 39.7632C18.1141 40.3861 17.7419 40.9028 17.0736 41.0431C16.725 41.1167 16.3697 41.1544 16.0178 41.2091V41.2074Z" fill="url(#paint2_linear_320_2613)" stroke="url(#paint3_linear_320_2613)" stroke-width="0.5"/>
<path d="M8.37898 40.3175C7.80371 40.196 7.16583 39.9804 6.66162 39.5081C6.27585 39.1488 6.25047 38.6046 6.52964 38.1683C6.80205 37.7422 7.30119 37.5386 7.79525 37.7131C8.20809 37.8603 8.61416 38.0451 8.99655 38.2607C9.44662 38.5156 9.63781 39.0529 9.50076 39.5218C9.3654 39.9855 8.95425 40.3021 8.37729 40.3175H8.37898Z" fill="url(#paint4_linear_320_2613)" stroke="url(#paint5_linear_320_2613)" stroke-width="0.5"/>
<path d="M11.8925 38.9382C12.1615 38.9759 12.4982 39.005 12.8265 39.0734C13.4271 39.1966 13.7723 39.6655 13.7283 40.2627C13.6877 40.8017 13.2545 41.2654 12.6911 41.2688C12.214 41.2705 11.725 41.2106 11.2597 41.0994C10.7047 40.9659 10.4036 40.4355 10.4848 39.8811C10.5677 39.3215 10.9907 38.9553 11.5761 38.9417C11.6607 38.9399 11.7436 38.9417 11.8925 38.9417V38.9382Z" fill="url(#paint6_linear_320_2613)" stroke="url(#paint7_linear_320_2613)" stroke-width="0.5"/>
<path d="M31.0402 41.1954C30.6866 41.1406 30.3296 41.1081 29.9827 41.0243C29.4024 40.8857 29.0674 40.3706 29.1435 39.7803C29.2129 39.231 29.6579 38.8169 30.2315 38.834C30.6697 38.8477 31.113 38.9059 31.5428 39C32.1231 39.1283 32.4615 39.6605 32.3837 40.244C32.3092 40.807 31.8811 41.18 31.2957 41.1903C31.2111 41.1903 31.1282 41.1817 31.0436 41.1783L31.0402 41.1954Z" fill="url(#paint8_linear_320_2613)" stroke="url(#paint9_linear_320_2613)" stroke-width="0.5"/>
<path d="M40.8311 38.7914C40.826 39.185 40.6551 39.5084 40.3269 39.6915C39.9259 39.9174 39.5029 40.1227 39.0664 40.2613C38.4759 40.4478 37.948 40.1655 37.7263 39.6179C37.5097 39.084 37.7162 38.5022 38.2576 38.2148C38.6095 38.0283 38.975 37.8554 39.3506 37.7254C40.1086 37.4636 40.8446 38.0077 40.8294 38.7914H40.8311Z" fill="url(#paint10_linear_320_2613)" stroke="url(#paint11_linear_320_2613)" stroke-width="0.5"/>
<path d="M35.4018 38.9246C35.5727 38.9502 35.8333 38.9485 36.0617 39.0341C36.4762 39.1881 36.7622 39.6775 36.7351 40.0933C36.7046 40.5844 36.3493 41.0276 35.8502 41.1302C35.461 41.2107 35.0617 41.2603 34.6641 41.2774C34.0076 41.3048 33.5051 40.8479 33.451 40.2353C33.4019 39.6826 33.8486 39.0871 34.4458 39.0512C34.7385 39.0341 35.0279 38.9759 35.4018 38.9246Z" fill="url(#paint12_linear_320_2613)" stroke="url(#paint13_linear_320_2613)" stroke-width="0.5"/>
<defs>
<linearGradient id="paint0_linear_320_2613" x1="23.5783" y1="1.22534" x2="23.5783" y2="55.9814" gradientUnits="userSpaceOnUse">
<stop offset="0.01" stop-color="#AA0075"/>
<stop offset="0.35" stop-color="#DE003B"/>
<stop offset="1" stop-color="#FF3F9B"/>
</linearGradient>
<linearGradient id="paint1_linear_320_2613" x1="23.5783" y1="1.22534" x2="23.5783" y2="55.9814" gradientUnits="userSpaceOnUse">
<stop offset="0.01" stop-color="#AA0075"/>
<stop offset="0.35" stop-color="#DE003B"/>
<stop offset="1" stop-color="#FF3F9B"/>
</linearGradient>
<linearGradient id="paint2_linear_320_2613" x1="16.3944" y1="38.8354" x2="16.3944" y2="41.2147" gradientUnits="userSpaceOnUse">
<stop offset="0.01" stop-color="#AA0075"/>
<stop offset="0.35" stop-color="#DE003B"/>
<stop offset="1" stop-color="#FF3F9B"/>
</linearGradient>
<linearGradient id="paint3_linear_320_2613" x1="16.3944" y1="38.8354" x2="16.3944" y2="41.2147" gradientUnits="userSpaceOnUse">
<stop offset="0.01" stop-color="#AA0075"/>
<stop offset="0.35" stop-color="#DE003B"/>
<stop offset="1" stop-color="#FF3F9B"/>
</linearGradient>
<linearGradient id="paint4_linear_320_2613" x1="7.94355" y1="37.6506" x2="7.94355" y2="40.3175" gradientUnits="userSpaceOnUse">
<stop offset="0.01" stop-color="#AA0075"/>
<stop offset="0.35" stop-color="#DE003B"/>
<stop offset="1" stop-color="#FF3F9B"/>
</linearGradient>
<linearGradient id="paint5_linear_320_2613" x1="7.94355" y1="37.6506" x2="7.94355" y2="40.3175" gradientUnits="userSpaceOnUse">
<stop offset="0.01" stop-color="#AA0075"/>
<stop offset="0.35" stop-color="#DE003B"/>
<stop offset="1" stop-color="#FF3F9B"/>
</linearGradient>
<linearGradient id="paint6_linear_320_2613" x1="12.1019" y1="38.9382" x2="12.1019" y2="41.2689" gradientUnits="userSpaceOnUse">
<stop offset="0.01" stop-color="#AA0075"/>
<stop offset="0.35" stop-color="#DE003B"/>
<stop offset="1" stop-color="#FF3F9B"/>
</linearGradient>
<linearGradient id="paint7_linear_320_2613" x1="12.1019" y1="38.9382" x2="12.1019" y2="41.2689" gradientUnits="userSpaceOnUse">
<stop offset="0.01" stop-color="#AA0075"/>
<stop offset="0.35" stop-color="#DE003B"/>
<stop offset="1" stop-color="#FF3F9B"/>
</linearGradient>
<linearGradient id="paint8_linear_320_2613" x1="30.7638" y1="38.8335" x2="30.7638" y2="41.1954" gradientUnits="userSpaceOnUse">
<stop offset="0.01" stop-color="#AA0075"/>
<stop offset="0.35" stop-color="#DE003B"/>
<stop offset="1" stop-color="#FF3F9B"/>
</linearGradient>
<linearGradient id="paint9_linear_320_2613" x1="30.7638" y1="38.8335" x2="30.7638" y2="41.1954" gradientUnits="userSpaceOnUse">
<stop offset="0.01" stop-color="#AA0075"/>
<stop offset="0.35" stop-color="#DE003B"/>
<stop offset="1" stop-color="#FF3F9B"/>
</linearGradient>
<linearGradient id="paint10_linear_320_2613" x1="39.2363" y1="37.6589" x2="39.2363" y2="40.3187" gradientUnits="userSpaceOnUse">
<stop offset="0.01" stop-color="#AA0075"/>
<stop offset="0.35" stop-color="#DE003B"/>
<stop offset="1" stop-color="#FF3F9B"/>
</linearGradient>
<linearGradient id="paint11_linear_320_2613" x1="39.2363" y1="37.6589" x2="39.2363" y2="40.3187" gradientUnits="userSpaceOnUse">
<stop offset="0.01" stop-color="#AA0075"/>
<stop offset="0.35" stop-color="#DE003B"/>
<stop offset="1" stop-color="#FF3F9B"/>
</linearGradient>
<linearGradient id="paint12_linear_320_2613" x1="35.0921" y1="38.9246" x2="35.0921" y2="41.2786" gradientUnits="userSpaceOnUse">
<stop offset="0.01" stop-color="#AA0075"/>
<stop offset="0.35" stop-color="#DE003B"/>
<stop offset="1" stop-color="#FF3F9B"/>
</linearGradient>
<linearGradient id="paint13_linear_320_2613" x1="35.0921" y1="38.9246" x2="35.0921" y2="41.2786" gradientUnits="userSpaceOnUse">
<stop offset="0.01" stop-color="#AA0075"/>
<stop offset="0.35" stop-color="#DE003B"/>
<stop offset="1" stop-color="#FF3F9B"/>
</linearGradient>
</defs>
</svg>
