<svg width="56" height="49" viewBox="0 0 56 49" fill="none" xmlns="http://www.w3.org/2000/svg">
<path d="M11.5085 24.5027C12.121 24.4636 12.7518 24.5396 13.3153 24.3671C18.6889 22.7238 23.2356 19.8481 26.4778 15.1339C27.3208 13.8818 27.8645 12.4504 28.0662 10.9518C28.2703 9.53853 27.8845 9.00652 26.488 8.73743C24.8755 8.44868 23.2174 8.56009 21.6575 9.06198C14.8731 11.1161 9.27288 14.9264 5.14061 20.7704C3.82375 22.6334 2.93768 24.7019 2.9336 27.06C2.9336 29.2805 3.87275 30.5294 6.00831 31.0758C7.93561 31.5688 9.86496 31.3777 11.7657 30.9607C19.1156 29.3462 25.3487 25.6796 30.561 20.2609C35.5426 15.0846 39.0583 9.01063 41.2674 2.15815C41.3296 1.90339 41.4101 1.6535 41.5083 1.41046C41.9473 0.529246 42.8558 0.332053 43.5867 0.97704C43.8708 1.25196 44.1316 1.55014 44.3666 1.86852C47.9742 6.28073 51.5593 10.7135 55.2057 15.0949C55.8937 15.9165 55.9999 16.6868 55.6997 17.6563C54.1935 22.481 51.9397 27.0363 49.0215 31.1538C43.7133 38.6698 36.8554 44.1255 28.1499 47.1347C25.559 48.0324 22.9029 48.6322 20.1385 48.6034C16.7596 48.5664 14.0136 47.2539 11.9046 44.565C8.48005 40.1706 5.0501 35.7824 1.6147 31.4003C0.0753038 29.4489 0.0998035 27.21 0.495881 24.9484C0.940958 22.4095 2.12919 20.1747 3.71554 18.1842C8.22961 12.5355 13.9115 8.59981 20.8326 6.54571C22.7335 5.95382 24.7421 5.79869 26.7105 6.09175C28.207 6.32797 29.4463 6.94009 30.3569 8.22801C31.3267 9.59604 32.3985 10.8983 33.4826 12.3239C32.9865 13.051 32.4965 13.7618 31.9596 14.5505L30.561 12.9853C30.4161 13.0921 30.3099 13.1291 30.2915 13.1907C29.1748 16.7484 26.8943 19.4557 24.0564 21.7337C21.0674 24.135 17.7865 26.0001 14.034 26.8977C13.1775 27.0943 12.2965 27.1594 11.4207 27.0908C9.26472 26.9285 8.19694 25.3305 8.90743 23.2702C9.2368 22.3552 9.71341 21.501 10.3182 20.7416C12.0002 18.6227 14.1047 16.8818 16.4962 15.631C16.7183 15.4931 16.9599 15.3899 17.2128 15.3249C17.8253 15.214 18.3378 15.4091 18.642 16.0007C18.7925 16.2503 18.8461 16.5471 18.7926 16.834C18.7391 17.1209 18.5822 17.3779 18.3521 17.5557C18.0713 17.7689 17.7704 17.954 17.4537 18.1082C15.4917 19.2503 13.7359 20.643 12.3292 22.4424C11.9339 23.0063 11.5713 23.5927 11.2431 24.1986L11.5085 24.5027ZM53.26 16.9271L43.3458 4.80794C43.2472 4.92039 43.1578 5.0406 43.0783 5.1674C42.9395 5.49195 42.8109 5.82061 42.6802 6.14926C39.7484 13.4639 35.4753 19.8337 29.4626 24.9484C24.4402 29.225 18.7583 32.2446 12.268 33.5571C10.6489 33.8837 8.97481 33.9412 7.20266 34.1364C7.46808 34.5123 7.70286 34.8697 7.96419 35.2066C9.92008 37.7187 11.9556 40.1713 13.8176 42.7492C15.6795 45.3271 19.3198 46.7691 23.3316 45.4853C23.0274 45.0745 22.7497 44.6924 22.4537 44.3186C21.3941 42.9649 20.3039 41.6297 19.2545 40.2576C18.6746 39.4955 18.74 38.7191 19.332 38.2487C19.9241 37.7783 20.702 37.9077 21.292 38.6143C22.1087 39.5962 22.8967 40.6109 23.6991 41.6113C24.579 42.7102 25.461 43.8071 26.392 44.9656L31.4063 42.9854C31.0715 42.5233 30.8734 42.2357 30.6611 41.9584C30.2283 41.3976 29.7628 40.8636 29.3565 40.2864C28.8502 39.5674 28.9114 38.8649 29.4626 38.3884C30.0629 37.8687 30.7856 37.9591 31.4308 38.6677C31.7574 39.0251 32.0433 39.4298 32.3434 39.8057C32.8375 40.4055 33.3418 40.9971 33.8644 41.6215C35.3793 40.7547 36.7615 39.9433 37.962 38.7971C36.9983 37.5811 36.1245 36.476 35.2446 35.3688C34.7239 34.7115 34.1747 34.0727 33.697 33.3846C33.593 33.2543 33.5157 33.1045 33.4697 32.9439C33.4236 32.7834 33.4097 32.6152 33.4286 32.4492C33.4476 32.2832 33.4992 32.1226 33.5803 31.9767C33.6614 31.8309 33.7705 31.7027 33.9012 31.5996C34.1654 31.398 34.4929 31.2987 34.8238 31.3198C35.1548 31.3409 35.4671 31.481 35.7039 31.7146C35.885 31.9083 36.0528 32.1142 36.2062 32.3308C37.2821 33.6783 38.3519 35.0299 39.434 36.3712C39.6382 36.628 39.8954 36.8457 40.2017 37.1539L44.0992 33.1751C43.4336 32.3349 42.8599 31.6119 42.2903 30.8888C41.935 30.4369 41.5471 30.0056 41.2388 29.5249C40.7815 28.8163 40.9101 28.0604 41.4981 27.6372C42.0861 27.2141 42.7231 27.3024 43.2702 27.8981C43.7214 28.3828 44.0869 28.9436 44.5299 29.4366C44.973 29.9296 45.22 30.5479 45.9591 30.8847L49.0971 26.1172C47.5087 24.1185 46.0183 22.2575 44.5463 20.3842C43.8664 19.5153 43.8684 18.8107 44.4993 18.2726C45.0975 17.7631 45.9019 17.9028 46.5573 18.6834C47.2698 19.5256 47.9456 20.4027 48.6418 21.2613C49.2135 21.9658 49.7912 22.6642 50.5364 23.5742L53.26 16.9271Z" fill="url(#paint0_linear_320_2578)"/>
<defs>
<linearGradient id="paint0_linear_320_2578" x1="28.0628" y1="0.597168" x2="28.0628" y2="48.6044" gradientUnits="userSpaceOnUse">
<stop offset="0.01" stop-color="#AA0075"/>
<stop offset="0.35" stop-color="#DE003B"/>
<stop offset="1" stop-color="#FF3F9B"/>
</linearGradient>
</defs>
</svg>
