<svg width="63" height="63" viewBox="0 0 63 63" fill="none" xmlns="http://www.w3.org/2000/svg">
<path d="M10.4453 31.4139C10.5291 28.5973 12.7437 26.2681 15.5251 26.1331C15.8256 26.1181 15.9617 25.9996 16.0694 25.7401C17.3374 22.661 19.3831 20.2194 22.1705 18.4256C25.3212 16.3994 28.777 15.552 32.5124 15.8669C36.333 16.1894 39.6363 17.6742 42.4326 20.2959C43.4001 21.2032 44.2316 22.2291 44.9284 23.3584C45.0734 23.5939 45.2185 23.6479 45.4996 23.6209C47.4271 23.4379 49.2261 23.8699 50.8067 24.9842C53.3533 26.781 54.5929 29.2587 54.2236 32.3918C53.8856 35.2489 52.2946 37.2856 49.7405 38.5424C48.4246 39.1888 47.0219 39.4978 45.543 39.2638C45.2619 39.2188 45.0929 39.3043 44.9344 39.5563C42.8708 42.8394 39.9743 45.0696 36.3166 46.2904C33.7864 47.1348 31.1875 47.3418 28.5437 46.9218C24.4449 46.2724 21.0415 44.3872 18.3917 41.1716C17.4182 39.9912 16.6436 38.6864 16.0978 37.2541C15.9677 36.9151 15.7882 36.7952 15.4189 36.7787C13.2401 36.6827 11.1362 34.9054 10.6577 32.7727C10.5575 32.3258 10.5141 31.8653 10.4453 31.4109V31.4139ZM18.0956 36.4187C19.5371 40.4412 23.9873 44.6766 30.2678 45.0726C35.8037 45.4205 40.7399 42.5409 43.0502 38.4449C40.0027 37.0336 38.2187 34.6894 38.2022 31.2804C38.1858 27.8384 40.052 25.5302 43.0771 24.0679C43.0084 23.9509 42.965 23.8624 42.9097 23.7829C40.3406 20.1249 36.8131 18.1046 32.3898 17.6862C29.9329 17.4537 27.5583 17.8497 25.2973 18.877C22.1136 20.3229 19.745 22.5966 18.275 25.7896C18.0059 26.376 18.0208 26.2591 18.5472 26.5485C20.3985 27.5669 21.505 29.1042 21.5469 31.2519C21.5888 33.4476 20.5181 35.0449 18.6414 36.1233C18.4605 36.2267 18.275 36.3227 18.0956 36.4202V36.4187ZM40.1283 31.4664C40.2629 32.0963 40.3242 32.7532 40.5425 33.3531C41.7597 36.6857 45.5789 38.247 48.7984 36.7607C52.157 35.2099 53.3069 31.2189 51.2523 28.2088C49.881 26.2006 47.2103 25.1297 44.6323 25.8256C42.0648 26.5185 40.2135 28.8237 40.1283 31.4664ZM15.9273 34.7779C17.816 34.7779 19.3517 33.2796 19.3427 31.4484C19.3338 29.6261 17.8175 28.1533 15.9393 28.1443C14.0417 28.1338 12.5104 29.6021 12.4955 31.4439C12.482 33.2406 14.0656 34.7779 15.9273 34.7779Z" fill="url(#paint0_linear_320_2572)" stroke="url(#paint1_linear_320_2572)"/>
<path d="M21.1838 4.97389C20.9056 4.81191 20.7083 4.69042 20.5064 4.58094C19.5553 4.06501 18.6028 3.55358 17.6502 3.03914C17.0222 2.69869 16.8278 2.19326 17.1224 1.66683C17.4319 1.1119 18.0346 0.95592 18.6357 1.29937C20.644 2.44822 22.6477 3.60457 24.6515 4.76241C25.2721 5.12087 25.3947 5.57681 25.0284 6.20072C24.1775 7.65103 23.3192 9.09834 22.4638 10.5456C22.1842 11.0181 21.909 11.492 21.6219 11.9585C21.2242 12.6034 20.6559 12.7818 20.1176 12.4444C19.5778 12.1054 19.4716 11.4965 19.8514 10.8726C20.5438 9.73275 21.2391 8.5959 21.9315 7.45756C22.0047 7.33607 22.0675 7.21009 22.1363 7.08561C22.1154 7.06011 22.0945 7.03461 22.072 7.00912C21.7864 7.1081 21.4948 7.19509 21.2152 7.30908C18.4293 8.44592 15.7511 9.78375 13.4019 11.6945C9.47659 14.8891 6.65035 18.877 4.94265 23.6554C3.7643 26.9535 3.28279 30.358 3.47121 33.848C3.75084 39.0209 5.40322 43.7272 8.4074 47.9447C11.0078 51.5937 14.3171 54.4343 18.2813 56.501C20.9685 57.9018 23.8037 58.8977 26.8078 59.3222C28.369 59.5426 29.9496 59.6161 31.5227 59.7361C32.236 59.7901 32.6742 60.213 32.6293 60.867C32.5919 61.4054 32.23 61.7848 31.6797 61.7698C30.5612 61.7398 29.4337 61.7368 28.3271 61.5944C26.911 61.4129 25.4979 61.1669 24.1087 60.8415C20.9744 60.1081 18.048 58.8482 15.3175 57.137C10.5518 54.1493 6.88213 50.1554 4.36394 45.1101C3.27382 42.9248 2.48128 40.6316 1.99828 38.2395C1.36574 35.1094 1.22218 31.9553 1.65434 28.7817C2.70857 21.0383 6.36175 14.7556 12.3148 9.79125C14.0539 8.34094 16.0622 7.30158 18.1063 6.3462C19.029 5.91576 19.9725 5.52881 20.9071 5.12087C20.9714 5.09237 21.0328 5.05638 21.1883 4.97389H21.1838Z" fill="url(#paint2_linear_320_2572)" stroke="url(#paint3_linear_320_2572)"/>
<path d="M45.3391 58.7508C45.4722 58.7508 45.6053 58.7508 45.7384 58.7508C47.1082 58.7508 48.4779 58.7523 49.8462 58.7523C50.2828 58.7523 50.5804 58.9877 50.7643 59.3522C50.9318 59.6821 50.9049 60.0301 50.6985 60.3495C50.4937 60.666 50.1692 60.768 49.8267 60.7695C47.5239 60.7785 45.221 60.7845 42.9167 60.7695C42.2288 60.765 41.8206 60.3121 41.8191 59.6146C41.8146 57.4294 41.8146 55.2442 41.8191 53.059C41.8206 52.3841 42.1929 51.9762 42.7836 51.9657C43.3653 51.9552 43.8139 52.3991 43.8228 53.0545C43.8408 54.2274 43.8288 55.4017 43.8318 56.576C43.8318 56.72 43.8513 56.8625 43.8677 57.0785C44.1159 56.975 44.3088 56.9075 44.4928 56.8175C50.9318 53.6424 55.4358 48.6811 58.0542 41.995C59.4479 38.4345 60.0191 34.7285 59.7918 30.9175C59.5032 26.0986 58.0378 21.6577 55.3491 17.6412C52.0234 12.6724 47.5493 9.14485 41.985 7.00014C38.758 5.7568 35.4144 5.14339 31.9616 5.10139C31.7538 5.09839 31.5325 5.08639 31.3395 5.0189C30.8296 4.83893 30.5724 4.37849 30.6607 3.87306C30.7429 3.40362 31.1571 3.05266 31.682 3.06916C32.7258 3.10366 33.7785 3.09916 34.8118 3.23414C36.2638 3.42461 37.7158 3.66608 39.1424 3.99754C42.3394 4.74294 45.3182 6.03277 48.0966 7.78754C52.7382 10.7196 56.342 14.6146 58.8662 19.501C60.0894 21.8707 60.9522 24.3693 61.4831 26.9895C61.993 29.5031 62.168 32.0348 61.9766 34.586C61.7612 37.4641 61.1347 40.2582 60.0281 42.9264C57.163 49.8374 52.3883 54.9848 45.7489 58.3968C45.5978 58.4748 45.4543 58.5648 45.3077 58.6503C45.3182 58.6848 45.3287 58.7178 45.3391 58.7523V58.7508Z" fill="url(#paint4_linear_320_2572)" stroke="url(#paint5_linear_320_2572)"/>
<defs>
<linearGradient id="paint0_linear_320_2572" x1="32.3665" y1="15.803" x2="32.3665" y2="47.1324" gradientUnits="userSpaceOnUse">
<stop offset="0.01" stop-color="#AA0075"/>
<stop offset="0.35" stop-color="#DE003B"/>
<stop offset="1" stop-color="#FF3F9B"/>
</linearGradient>
<linearGradient id="paint1_linear_320_2572" x1="32.3665" y1="15.803" x2="32.3665" y2="47.1324" gradientUnits="userSpaceOnUse">
<stop offset="0.01" stop-color="#AA0075"/>
<stop offset="0.35" stop-color="#DE003B"/>
<stop offset="1" stop-color="#FF3F9B"/>
</linearGradient>
<linearGradient id="paint2_linear_320_2572" x1="17.0193" y1="1.11792" x2="17.0193" y2="61.7703" gradientUnits="userSpaceOnUse">
<stop offset="0.01" stop-color="#AA0075"/>
<stop offset="0.35" stop-color="#DE003B"/>
<stop offset="1" stop-color="#FF3F9B"/>
</linearGradient>
<linearGradient id="paint3_linear_320_2572" x1="17.0193" y1="1.11792" x2="17.0193" y2="61.7703" gradientUnits="userSpaceOnUse">
<stop offset="0.01" stop-color="#AA0075"/>
<stop offset="0.35" stop-color="#DE003B"/>
<stop offset="1" stop-color="#FF3F9B"/>
</linearGradient>
<linearGradient id="paint4_linear_320_2572" x1="46.3478" y1="3.0686" x2="46.3478" y2="60.7786" gradientUnits="userSpaceOnUse">
<stop offset="0.01" stop-color="#AA0075"/>
<stop offset="0.35" stop-color="#DE003B"/>
<stop offset="1" stop-color="#FF3F9B"/>
</linearGradient>
<linearGradient id="paint5_linear_320_2572" x1="46.3478" y1="3.0686" x2="46.3478" y2="60.7786" gradientUnits="userSpaceOnUse">
<stop offset="0.01" stop-color="#AA0075"/>
<stop offset="0.35" stop-color="#DE003B"/>
<stop offset="1" stop-color="#FF3F9B"/>
</linearGradient>
</defs>
</svg>
