<svg width="52" height="60" viewBox="0 0 52 60" fill="none" xmlns="http://www.w3.org/2000/svg">
<path d="M24.8957 43.5993C25.6342 43.3964 26.2757 43.2326 26.9097 43.0409C27.458 42.8752 27.9802 42.905 28.4893 43.1618C33.1347 45.5109 36.1968 49.1629 37.4761 54.2165C37.7931 55.4655 37.8584 56.7796 37.9945 58.0695C38.0616 58.7098 37.7707 58.9648 37.1143 58.9834C36.9595 58.9872 36.8047 58.9834 36.6481 58.9834C25.4122 58.9834 14.1764 58.9834 2.93871 58.9834C2.78392 58.9834 2.62914 58.9834 2.47249 58.9834C1.72095 58.9723 1.49343 58.7489 1.50276 58.0099C1.52887 55.8489 1.96338 53.7679 2.81749 51.7837C4.49028 47.9046 7.23163 45.0307 11.0285 43.1581C11.7055 42.8231 12.3488 42.9496 13.0127 43.1507C13.4267 43.2772 13.8482 43.3796 14.2641 43.5025C14.527 43.5807 14.6426 43.4988 14.6408 43.2214C14.6352 42.2293 14.6519 41.2372 14.624 40.2469C14.6202 40.0887 14.4599 39.8951 14.3181 39.7872C13.5423 39.1971 12.7591 38.6145 11.9572 38.0636C11.7465 37.9184 11.4537 37.8216 11.1982 37.8197C8.46618 37.803 5.73601 37.8104 3.00398 37.8086C2.04171 37.8086 1.84216 37.6038 1.84216 36.6303C1.84216 34.957 1.84403 33.2836 1.8403 31.6102C1.83657 30.3017 1.91303 28.9969 1.48411 27.7107C1.15589 26.7279 1.36849 25.7209 1.68179 24.7437C1.76943 24.47 1.83284 24.1741 1.8347 23.8893C1.84776 21.6277 1.81606 19.3662 1.84776 17.1046C1.91489 12.1031 3.81706 7.92251 7.63817 4.67629C10.6201 2.14856 14.1111 0.903305 18.0292 0.886552C19.4577 0.880968 20.8918 0.815821 22.311 0.925641C29.0991 1.45427 33.8228 4.91082 36.5175 11.1222C37.3399 13.0171 37.6588 15.0348 37.6495 17.1028C37.642 18.9306 37.6495 20.7585 37.6495 22.5863C37.6495 23.5114 37.6551 24.4179 37.9609 25.3281C38.3134 26.3798 38.1884 27.465 37.8341 28.5222C37.7241 28.8517 37.6607 29.2128 37.6588 29.5609C37.6439 31.9769 37.6532 34.3948 37.6495 36.8109C37.6495 37.5908 37.4369 37.8086 36.6537 37.8104C33.875 37.816 31.0982 37.803 28.3196 37.8272C28.0286 37.829 27.7042 37.9835 27.4543 38.1529C26.699 38.6648 25.968 39.2139 25.2388 39.7611C25.1027 39.8635 24.918 40.0217 24.9143 40.1576C24.8882 41.2688 24.8994 42.3819 24.8994 43.5993H24.8957ZM13.2645 18.7408C13.1507 18.724 13.1172 18.7091 13.0911 18.7166C11.3026 19.3569 9.4788 19.8222 7.57104 19.9283C7.47407 19.9339 7.32115 20.1089 7.30623 20.2205C7.1962 20.9856 7.06193 21.7543 7.03582 22.523C6.94817 25.1904 7.44982 27.7628 8.43261 30.2347C9.63731 33.2668 11.3679 35.936 14.0664 37.8625C16.6343 39.696 19.4484 40.3251 22.5236 39.3516C24.7856 38.635 26.5573 37.2129 28.0529 35.4204C29.983 33.1068 31.2194 30.4413 31.9355 27.5338C32.5137 25.1941 32.6405 22.8246 32.2749 20.4346C32.2246 20.1051 32.1314 19.9264 31.7379 19.8892C30.8595 19.8055 29.9905 19.6323 29.114 19.53C28.9387 19.5095 28.6832 19.5784 28.5713 19.7031C27.389 21.0098 25.733 21.3951 24.2299 20.6859C22.7044 19.9674 21.9585 18.4411 22.2587 16.6746C22.2811 16.5388 22.2774 16.3359 22.1953 16.254C21.3916 15.4648 20.571 14.6941 19.62 13.7914C19.5696 13.89 19.5248 14.052 19.4241 14.1655C19.053 14.5825 18.6838 15.0031 18.2754 15.381C17.9994 15.636 17.8875 15.904 17.8949 16.2744C17.9155 17.1418 17.9024 18.0092 17.9005 18.8766C17.9005 19.0311 17.9005 19.1875 17.8782 19.3401C17.8166 19.7626 17.5089 20.0288 17.121 20.0065C16.7387 19.986 16.431 19.6845 16.4217 19.2712C16.4068 18.5341 16.418 17.7989 16.418 16.9445C15.8287 17.3001 15.3345 17.5774 14.8683 17.8938C14.7732 17.9571 14.7489 18.1675 14.7452 18.3126C14.7321 18.9623 14.7489 19.6137 14.7321 20.2633C14.7191 20.7603 14.4375 21.0488 14.0048 21.0526C13.5535 21.0563 13.2738 20.7547 13.2645 20.2336C13.2552 19.7403 13.2626 19.247 13.2626 18.7426L13.2645 18.7408ZM22.9058 14.8673C23.0215 14.6439 23.0961 14.495 23.1744 14.3479C23.7954 13.1902 24.4015 12.0231 25.0449 10.8765C25.4253 10.2008 26.1172 10.2064 26.4939 10.8895C27.2249 12.2167 27.9503 13.5475 28.6142 14.9101C29.0133 15.7253 29.4142 16.5816 29.3452 17.5178C29.3098 18.0074 29.5224 18.1153 29.8972 18.1581C30.8371 18.2642 31.7752 18.3796 32.7169 18.4615C33.144 18.4988 33.4368 18.6812 33.5244 19.0944C33.6531 19.6994 33.7724 20.308 33.8414 20.9223C33.9477 21.8492 33.931 21.8381 34.841 22.0447C35.2699 22.1415 35.6858 22.2978 36.1334 22.4356C36.1464 22.2941 36.1669 22.1899 36.1669 22.0838C36.1669 20.3639 36.1912 18.6458 36.1595 16.9259C36.0998 13.5159 35.0387 10.4465 32.8642 7.80524C30.3541 4.75447 27.1298 2.91358 23.18 2.50222C21.5352 2.33097 19.8661 2.38309 18.2082 2.36261C16.5522 2.34214 14.9391 2.61576 13.3633 3.1295C7.59342 5.01692 3.47392 10.5656 3.37882 16.6225C3.35084 18.4187 3.36949 20.215 3.36763 22.0112C3.36763 22.1452 3.38628 22.2811 3.39373 22.3853C4.0222 22.242 4.61336 22.0745 5.21758 21.9814C5.49544 21.9386 5.56817 21.8492 5.59801 21.5886C5.68566 20.8366 5.79755 20.0865 5.9225 19.3382C6.03066 18.6961 6.26936 18.5341 6.91647 18.4578C8.08388 18.3219 9.27366 18.2512 10.4094 17.9739C13.9321 17.1139 16.8413 15.2823 18.9766 12.3079C19.5006 11.5782 19.9612 11.5894 20.5207 12.2874C21.0335 12.9277 21.5687 13.5475 22.1151 14.1599C22.3371 14.4075 22.6112 14.6085 22.9058 14.871V14.8673ZM19.7561 57.513C25.1549 57.513 30.5537 57.5092 35.9525 57.5204C36.3833 57.5204 36.5474 57.4106 36.4634 56.9657C36.3012 56.1151 36.2434 55.2402 36.0103 54.4101C34.7962 50.0582 32.1966 46.8027 28.1872 44.677C27.7676 44.4536 27.3983 44.4611 26.9507 44.5765C25.7069 44.8948 24.4611 45.2428 23.193 45.4215C19.5659 45.9353 15.9853 45.6784 12.485 44.5504C12.1195 44.4332 11.7745 44.4108 11.422 44.636C10.732 45.0772 9.98231 45.4346 9.32775 45.9204C5.63344 48.6622 3.53173 52.3253 3.07111 56.9062C3.01144 57.5074 3.03195 57.5111 3.65482 57.5111C9.02191 57.5111 14.3909 57.5111 19.758 57.5111L19.7561 57.513ZM36.1707 30.9476C34.8522 31.8559 33.558 32.0179 32.3104 31.4632C31.3089 33.1216 30.3504 34.7075 29.3863 36.3027C29.4292 36.312 29.487 36.3344 29.5448 36.3344C31.6204 36.3362 33.6978 36.3344 35.7734 36.3399C36.083 36.3399 36.1781 36.2078 36.1744 35.9193C36.1632 35.238 36.1707 34.5586 36.1707 33.8774C36.1707 32.9523 36.1707 32.0272 36.1707 30.9457V30.9476ZM3.39933 31.0928C3.38814 31.2175 3.36763 31.3496 3.36763 31.4818C3.36576 32.9374 3.37695 34.3948 3.3583 35.8504C3.35271 36.2413 3.48698 36.3511 3.86741 36.3474C5.82179 36.3306 7.77804 36.3399 9.73429 36.3381C9.87602 36.3381 10.0177 36.3157 10.1949 36.3009C10.1427 36.1743 10.1315 36.1091 10.0961 36.0626C9.02937 34.7224 8.15474 33.2668 7.45915 31.7033C7.3342 31.4241 7.15704 31.4501 6.93139 31.5358C6.31039 31.7703 5.66701 31.895 5.0199 31.6958C4.48095 31.5302 3.96065 31.3031 3.39933 31.0909V31.0928ZM16.1271 40.6453C16.1271 41.7249 16.1196 42.6946 16.1401 43.6663C16.142 43.7556 16.3266 43.8989 16.4422 43.9176C16.9924 44.005 17.5462 44.0702 18.1001 44.1204C19.7281 44.2712 21.3487 44.1763 22.9655 43.9511C23.2732 43.9083 23.3889 43.7798 23.3739 43.4708C23.3516 43.039 23.3683 42.6053 23.3683 42.1716C23.3683 41.6988 23.3683 41.226 23.3683 40.6583C20.9235 41.4773 18.5644 41.4866 16.1252 40.6453H16.1271ZM25.8001 12.6578C25.6901 12.7956 25.6192 12.8588 25.5819 12.937C25.0132 14.1171 24.435 15.2935 23.8905 16.4848C23.6425 17.0302 23.5735 17.6016 23.8047 18.1935C24.1982 19.2098 25.3395 19.7552 26.436 19.4201C27.4095 19.1242 28.0902 17.9869 27.8235 17.0488C27.3853 15.5094 26.5908 14.1302 25.802 12.656L25.8001 12.6578ZM36.7432 26.6571C36.6108 26.1211 36.5418 25.5589 36.3329 25.0564C35.9767 24.2057 35.3855 23.5784 34.3822 23.4891C34.0839 23.463 33.9757 23.5691 33.9571 23.8707C33.9179 24.5184 33.8937 25.1736 33.765 25.8046C33.5039 27.0871 33.1869 28.3603 32.8661 29.6297C32.7971 29.9015 32.8381 30.0913 33.0992 30.1155C33.5785 30.1602 34.1044 30.2645 34.537 30.123C35.794 29.7154 36.6518 28.2467 36.745 26.6553L36.7432 26.6571ZM2.85665 26.4319C2.86038 27.7218 3.19979 28.7568 4.05576 29.5776C4.62455 30.123 5.30336 30.378 6.09779 30.2365C6.66658 30.136 6.74863 29.9815 6.58079 29.4566C6.02506 27.7088 5.64836 25.9275 5.56817 24.0903C5.54206 23.4798 5.44695 23.3997 4.83901 23.5207C4.73458 23.5412 4.63014 23.5803 4.53317 23.625C3.28557 24.2094 2.93684 25.3076 2.85665 26.43V26.4319Z" fill="url(#paint0_linear_320_2604)" stroke="url(#paint1_linear_320_2604)" stroke-linejoin="round"/>
<path d="M37.7762 44.3863C37.7762 43.4389 37.7612 42.7874 37.7799 42.1378C37.7985 41.5124 38.3393 41.1606 38.8802 41.4621C41.1422 42.7204 43.3913 44.0141 45.2729 45.8177C47.4082 47.8634 46.8916 51.5228 44.333 52.8109C42.0094 53.9798 39.0592 52.6433 38.4065 50.1212C37.8936 48.1426 37.8396 46.1155 37.7762 44.3863ZM39.3184 43.411C39.3184 44.055 39.2774 44.5613 39.3259 45.0601C39.4751 46.5958 39.5832 48.1407 39.8462 49.6577C40.1054 51.1505 41.8695 52.1091 43.2533 51.6363C45.1965 50.9737 45.7876 48.3771 44.264 46.9308C43.4398 46.1472 42.4849 45.4938 41.5562 44.8275C40.8681 44.3361 40.1278 43.9191 39.3165 43.411H39.3184Z" fill="url(#paint2_linear_320_2604)" stroke="url(#paint3_linear_320_2604)" stroke-linejoin="round"/>
<path d="M46.7106 42.5533C45.905 42.5589 45.1665 42.2964 44.5044 41.8925C42.8149 40.8632 41.1458 39.7966 39.4898 38.7133C38.893 38.3224 38.9509 37.6654 39.5868 37.3434C41.5356 36.3587 43.5105 35.4317 45.6327 34.864C47.7363 34.3019 49.976 35.5471 50.5 37.576C51.0688 39.7799 49.8212 41.9074 47.6318 42.4416C47.3334 42.5142 47.0183 42.5179 46.7106 42.5533ZM41.2913 38.1717C41.6475 38.4174 41.9011 38.6202 42.1789 38.7785C43.4526 39.5025 44.7021 40.2769 46.0224 40.906C46.9045 41.3248 47.9805 40.9246 48.6034 40.1615C49.2207 39.4039 49.3139 38.3113 48.8309 37.4699C48.3293 36.5969 47.3558 36.0609 46.4197 36.2414C44.6443 36.5839 43.0275 37.3638 41.2913 38.1735V38.1717Z" fill="url(#paint4_linear_320_2604)" stroke="url(#paint5_linear_320_2604)" stroke-linejoin="round"/>
<path d="M17.5216 32.2968C17.5309 31.0646 18.5416 30.078 19.7874 30.0892C21.0089 30.1004 21.9842 31.0888 21.986 32.3173C21.9879 33.5662 20.9977 34.5509 19.7445 34.5434C18.495 34.536 17.5122 33.542 17.5216 32.2949V32.2968ZM19.7594 31.5895C19.3473 31.5895 19.0228 31.9115 19.0246 32.3228C19.0246 32.7268 19.3603 33.0637 19.7594 33.0618C20.1547 33.0618 20.4979 32.7175 20.4997 32.3247C20.5016 31.9282 20.1622 31.5913 19.7594 31.5895Z" fill="url(#paint6_linear_320_2604)" stroke="url(#paint7_linear_320_2604)" stroke-linejoin="round"/>
<path d="M13.7435 26.3831C12.4325 26.3831 11.3677 25.6498 11.0115 24.4883C10.963 24.3282 10.935 24.1551 10.9313 23.9876C10.9164 23.5204 11.1625 23.2114 11.5654 23.1648C11.9999 23.1146 12.274 23.3212 12.3952 23.7884C12.6414 24.747 13.4321 25.1472 14.3496 24.7693C14.73 24.613 14.9762 24.3543 15.0564 23.9243C15.172 23.3082 15.5058 23.0643 16.0075 23.1779C16.4364 23.2747 16.6471 23.7084 16.5334 24.2593C16.2723 25.5251 15.1478 26.3813 13.7435 26.3813V26.3831Z" fill="url(#paint8_linear_320_2604)" stroke="url(#paint9_linear_320_2604)" stroke-linejoin="round"/>
<path d="M25.8411 26.3852C24.3156 26.389 23.1034 25.4099 22.9729 24.1293C22.917 23.582 23.1221 23.2433 23.5492 23.1725C24.0396 23.0906 24.338 23.34 24.4443 23.9264C24.5469 24.4941 25.0746 24.8943 25.7366 24.9073C26.4173 24.9203 26.9413 24.5146 27.1036 23.945C27.18 23.6769 27.3479 23.3456 27.5717 23.2265C28.077 22.9566 28.5787 23.3698 28.5694 23.9822C28.5545 25.0897 27.5586 26.1581 26.3726 26.335C26.173 26.3648 25.9716 26.3759 25.8392 26.3871L25.8411 26.3852Z" fill="url(#paint10_linear_320_2604)" stroke="url(#paint11_linear_320_2604)" stroke-linejoin="round"/>
<defs>
<linearGradient id="paint0_linear_320_2604" x1="19.7451" y1="0.862305" x2="19.7451" y2="58.9851" gradientUnits="userSpaceOnUse">
<stop offset="0.01" stop-color="#AA0075"/>
<stop offset="0.35" stop-color="#DE003B"/>
<stop offset="1" stop-color="#FF3F9B"/>
</linearGradient>
<linearGradient id="paint1_linear_320_2604" x1="19.7451" y1="0.862305" x2="19.7451" y2="58.9851" gradientUnits="userSpaceOnUse">
<stop offset="0.01" stop-color="#AA0075"/>
<stop offset="0.35" stop-color="#DE003B"/>
<stop offset="1" stop-color="#FF3F9B"/>
</linearGradient>
<linearGradient id="paint2_linear_320_2604" x1="42.1879" y1="41.3525" x2="42.1879" y2="53.2384" gradientUnits="userSpaceOnUse">
<stop offset="0.01" stop-color="#AA0075"/>
<stop offset="0.35" stop-color="#DE003B"/>
<stop offset="1" stop-color="#FF3F9B"/>
</linearGradient>
<linearGradient id="paint3_linear_320_2604" x1="42.1879" y1="41.3525" x2="42.1879" y2="53.2384" gradientUnits="userSpaceOnUse">
<stop offset="0.01" stop-color="#AA0075"/>
<stop offset="0.35" stop-color="#DE003B"/>
<stop offset="1" stop-color="#FF3F9B"/>
</linearGradient>
<linearGradient id="paint4_linear_320_2604" x1="44.8557" y1="34.7288" x2="44.8557" y2="42.5534" gradientUnits="userSpaceOnUse">
<stop offset="0.01" stop-color="#AA0075"/>
<stop offset="0.35" stop-color="#DE003B"/>
<stop offset="1" stop-color="#FF3F9B"/>
</linearGradient>
<linearGradient id="paint5_linear_320_2604" x1="44.8557" y1="34.7288" x2="44.8557" y2="42.5534" gradientUnits="userSpaceOnUse">
<stop offset="0.01" stop-color="#AA0075"/>
<stop offset="0.35" stop-color="#DE003B"/>
<stop offset="1" stop-color="#FF3F9B"/>
</linearGradient>
<linearGradient id="paint6_linear_320_2604" x1="19.7538" y1="30.0891" x2="19.7538" y2="34.5435" gradientUnits="userSpaceOnUse">
<stop offset="0.01" stop-color="#AA0075"/>
<stop offset="0.35" stop-color="#DE003B"/>
<stop offset="1" stop-color="#FF3F9B"/>
</linearGradient>
<linearGradient id="paint7_linear_320_2604" x1="19.7538" y1="30.0891" x2="19.7538" y2="34.5435" gradientUnits="userSpaceOnUse">
<stop offset="0.01" stop-color="#AA0075"/>
<stop offset="0.35" stop-color="#DE003B"/>
<stop offset="1" stop-color="#FF3F9B"/>
</linearGradient>
<linearGradient id="paint8_linear_320_2604" x1="13.7473" y1="23.1509" x2="13.7473" y2="26.3831" gradientUnits="userSpaceOnUse">
<stop offset="0.01" stop-color="#AA0075"/>
<stop offset="0.35" stop-color="#DE003B"/>
<stop offset="1" stop-color="#FF3F9B"/>
</linearGradient>
<linearGradient id="paint9_linear_320_2604" x1="13.7473" y1="23.1509" x2="13.7473" y2="26.3831" gradientUnits="userSpaceOnUse">
<stop offset="0.01" stop-color="#AA0075"/>
<stop offset="0.35" stop-color="#DE003B"/>
<stop offset="1" stop-color="#FF3F9B"/>
</linearGradient>
<linearGradient id="paint10_linear_320_2604" x1="25.7667" y1="23.1423" x2="25.7667" y2="26.3871" gradientUnits="userSpaceOnUse">
<stop offset="0.01" stop-color="#AA0075"/>
<stop offset="0.35" stop-color="#DE003B"/>
<stop offset="1" stop-color="#FF3F9B"/>
</linearGradient>
<linearGradient id="paint11_linear_320_2604" x1="25.7667" y1="23.1423" x2="25.7667" y2="26.3871" gradientUnits="userSpaceOnUse">
<stop offset="0.01" stop-color="#AA0075"/>
<stop offset="0.35" stop-color="#DE003B"/>
<stop offset="1" stop-color="#FF3F9B"/>
</linearGradient>
</defs>
</svg>
