<svg width="177" height="45" viewBox="0 0 177 45" fill="none" xmlns="http://www.w3.org/2000/svg">
<path d="M138.637 30.2076C136.91 32.4516 135.966 33.3745 135.385 34.4895C133.52 38.0503 134.767 41.7143 138.266 43.4591C140.407 44.5261 142.713 44.9121 144.831 43.9181C154.47 39.3966 164.093 34.8291 173.594 30.0228C176.769 28.4186 177.362 24.6578 175.156 21.6423C173.851 19.862 172.191 18.14 170.314 17.0265C163.323 12.895 156.856 8.05474 150.449 3.10431C149.181 2.12311 147.807 1.10129 146.316 0.639311C144.85 0.186389 143.116 0.123684 141.608 0.427442C138.463 1.05932 136.749 4.46552 138.181 7.18543C139.374 9.44731 140.919 11.5224 142.231 13.5596C142.026 15.3956 140.752 15.7373 139.463 15.8591C136.25 16.1615 133.027 16.5225 129.802 16.5658C115.591 16.7515 101.374 16.8153 87.1637 16.9575C79.0885 17.0415 71.0145 17.217 62.9415 17.3054C59.7119 17.3399 56.4549 17.4959 53.2553 17.1696C45.19 16.3507 37.1266 16.7483 29.0584 16.7911C25.1905 16.8104 21.3203 16.4358 17.4496 16.3158C14.228 16.2111 10.9817 15.9777 7.78005 16.2367C3.51983 16.5814 0.93322 19.7778 0.894164 24.1468C0.872856 26.4944 2.42386 28.8373 4.56012 29.295C6.4429 29.697 8.38553 29.9889 10.3028 30.0171C34.541 30.3809 58.7768 30.773 83.0147 30.9693C94.6429 31.0618 106.271 30.7649 117.898 30.6094C121.772 30.5597 125.644 30.3707 129.517 30.284C132.061 30.225 134.608 30.24 138.641 30.2055L138.637 30.2076Z" fill="#E0044F"/>
</svg>
