<svg width="518" height="547" viewBox="0 0 518 547" fill="none" xmlns="http://www.w3.org/2000/svg">
<path d="M46.9483 12.4947C183.741 189.275 320.427 366.047 457.219 542.827C462.851 550.105 476.686 541.504 470.958 534.108C334.166 357.327 197.479 180.556 60.6872 3.77494C55.0551 -3.50294 41.2203 5.09891 46.9483 12.4947Z" fill="#E00347"/>
<path d="M76.3987 461.735C176.939 313.244 306.92 185.608 457.599 88.411C474.207 77.7334 450.945 68.6397 440.013 75.7036C320.312 152.853 213.057 248.187 122.687 358.383C96.6793 390.182 72.1797 423.128 49.0972 457.111C40.5869 469.641 70.0094 470.93 76.308 461.626L76.3987 461.735Z" fill="#E00347"/>
</svg>
