<svg width="447" height="75" viewBox="0 0 447 75" fill="none" xmlns="http://www.w3.org/2000/svg">
<path d="M138.428 5.6259C104.372 7.98571 69.4384 11.9392 37.0768 21.0654C25.9162 24.2232 -1.31218 31.4313 0.0845497 43.6528C0.709709 49.0409 7.40064 52.7571 12.9766 55.2923C23.2951 59.9961 35.353 62.7275 46.9345 65.0032C81.2123 71.6875 117.149 73.7375 152.482 74.5128C189.717 75.3091 227.105 74.3377 264.294 71.8833C301.482 69.429 338.478 65.6875 374.66 58.8361C389.633 55.9942 404.592 52.6435 418.79 47.9443C427.44 45.0582 437.151 41.5523 443.249 35.8438C456.243 23.619 430.16 15.9822 418.818 13.1116C386.036 4.89334 350.25 2.76034 315.877 1.40755C276.358 -0.10345 236.642 0.350562 197.009 1.85995C186.947 2.24194 176.887 2.70223 166.83 3.2408C163.905 3.40742 159.335 6.95406 164.211 6.72857C235.439 3.05118 309.128 0.90592 379.512 10.1445C393.444 11.9574 407.646 14.1932 420.77 18.1854C427.098 20.1102 437.676 23.1998 439.496 28.9828C441.198 34.2993 433.202 38.4195 428.184 40.765C417.592 45.7471 405.402 48.8576 393.614 51.6426C361.258 59.2405 327.563 63.3526 294.039 66.3232C260.515 69.2939 224.641 71.0425 189.854 71.3086C155.066 71.5747 121.271 70.6746 87.4952 66.9921C72.4384 65.3698 57.4176 63.2372 42.8748 59.9146C33.0941 57.7022 22.5265 54.965 14.4137 50.1162C9.28336 47.019 5.08496 42.444 9.20408 37.5788C14.1654 31.6695 24.8078 28.3706 32.8503 25.7771C65.7365 15.303 102.627 11.4863 137.708 9.01718C141.452 8.74749 143.506 5.27677 138.479 5.62435L138.428 5.6259Z" fill="#E00347"/>
</svg>
