<svg width="484" height="220" viewBox="0 0 484 220" fill="none" xmlns="http://www.w3.org/2000/svg">
<path d="M6.13668 99.5292V6.84182H100.916V29.691H36.4814V42.7291H98.333V63.5128H36.4814V76.6801H100.916V99.5292H6.13668Z" fill="white"/>
<path d="M142.849 102.24C122.705 102.24 107.081 94.3656 107.081 76.2928C107.081 55.6383 128.903 49.7001 151.113 49.7001C163.768 49.7001 175.776 51.2492 186.365 53.9601C185.977 43.891 178.488 40.5346 162.864 40.5346C148.66 40.5346 135.36 42.8582 117.024 47.1182L113.408 25.8182C130.582 22.0746 149.047 19.3637 168.545 19.3637C201.214 19.3637 216.451 30.3364 216.451 59.1237V99.5292H186.365V89.331C172.677 97.9801 155.503 102.24 142.849 102.24ZM138.33 74.7437C138.33 79.2619 142.72 82.3601 152.921 82.3601C161.96 82.3601 177.197 79.1328 186.365 76.0347V69.5801C174.872 67.7728 164.93 66.3528 155.245 66.3528C142.72 66.3528 138.33 68.8055 138.33 74.7437Z" fill="white"/>
<path d="M264.765 102.111C242.426 102.111 230.159 93.591 230.159 76.2928V43.7619H214.793V21.9455H230.159V7.74546L259.858 0V21.9455H291.365V43.7619H259.858V65.4492C259.858 72.5492 263.086 77.5837 271.737 77.5837C278.839 77.5837 282.455 76.9383 291.365 75.0019V98.7547C284.134 100.562 274.836 102.111 264.765 102.111Z" fill="white"/>
<path d="M45.8399 220C16.2699 220 0 210.835 0 194.053C0 183.08 7.10199 175.722 25.8253 169.396C17.0447 162.296 13.5583 156.358 13.5583 148.871C13.5583 133.896 28.5369 124.473 52.4253 124.473C74.8933 124.473 89.6138 133.509 89.6138 147.193C89.6138 157.778 81.0914 165.265 62.7555 170.429L86.773 186.953C90.1303 182.047 92.3254 175.851 93.4876 167.976H116.601C115.31 180.369 110.92 190.696 103.947 198.829L130.805 217.418H94.908L86.773 211.738C75.7972 217.16 62.1098 220 45.8399 220ZM29.9573 189.664C29.9573 197.151 37.7049 200.765 52.8127 200.765C58.7525 200.765 63.9176 200.249 68.437 199.087L38.0923 177.916C32.7981 181.144 29.9573 185.016 29.9573 189.664ZM40.804 150.807C40.804 154.164 42.87 156.745 48.8098 160.747L51.1341 162.296C62.239 159.069 66.5001 155.584 66.5001 150.42C66.5001 145.514 61.7224 142.416 53.9748 142.416C45.8399 142.416 40.804 145.773 40.804 150.807Z" fill="white"/>
<path d="M188.683 220C151.365 220 129.93 211.093 128.768 186.824H160.275C160.275 193.536 167.248 198.055 187.391 198.055C207.923 198.055 211.796 195.214 211.796 190.309C211.796 184.629 208.31 183.467 185.842 182.047L181.322 181.789C145.813 179.724 130.188 170.945 130.188 151.065C130.188 132.089 150.461 122.536 182.356 122.536C218.769 122.536 238.267 133.638 239.429 154.164H207.923C207.923 147.064 199.529 144.482 182.097 144.482C165.698 144.482 161.695 147.064 161.695 151.065C161.695 155.842 165.182 157.649 185.971 159.069L191.265 159.456C222.901 161.909 243.303 165.265 243.303 189.147C243.303 212.513 222.901 220 188.683 220Z" fill="white"/>
<path d="M245.986 217.418V114.145H275.814V217.418H245.986Z" fill="white"/>
<path d="M282.091 217.418V139.834H311.919V217.418H282.091ZM282.091 131.96V114.145H311.919V131.96H282.091Z" fill="white"/>
<path d="M453.914 179.594C453.914 166.169 447.974 162.038 436.352 162.038C425.118 162.038 415.95 166.04 415.95 179.207V217.418H385.864V179.594C385.864 166.169 380.053 162.038 368.432 162.038C357.069 162.038 348.03 166.04 348.03 179.207V217.418H317.814V139.834H348.03V152.614C356.423 142.933 367.27 137.253 381.99 137.253C395.29 137.253 407.428 142.674 412.851 156.616C421.632 144.482 433.382 137.253 449.911 137.253C467.988 137.253 484 147.322 484 174.689V217.418H453.914V179.594Z" fill="white"/>
</svg>
