<svg width="1254" height="171" viewBox="0 0 1254 171" fill="none" xmlns="http://www.w3.org/2000/svg">
<path d="M0 166.626V17.0792H152.472V53.9452H48.8158V74.9817H148.317V108.515H48.8158V129.76H152.472V166.626H0Z" fill="white"/>
<path d="M219.93 171C187.525 171 162.39 158.295 162.39 129.135C162.39 95.81 197.496 86.229 233.225 86.229C253.582 86.229 272.901 88.7284 289.934 93.1023C289.311 76.8563 277.263 71.4409 252.128 71.4409C229.278 71.4409 207.882 75.19 178.385 82.0633L172.569 47.6967C200.196 41.6565 229.901 37.2826 261.268 37.2826C313.823 37.2826 338.335 54.9866 338.335 101.434V166.626H289.934V150.172C267.915 164.127 240.288 171 219.93 171ZM212.66 126.636C212.66 133.926 219.723 138.924 236.133 138.924C250.674 138.924 275.186 133.717 289.934 128.719V118.305C271.447 115.389 255.452 113.097 239.872 113.097C219.723 113.097 212.66 117.055 212.66 126.636Z" fill="white"/>
<path d="M416.057 170.792C380.12 170.792 360.386 157.045 360.386 129.135V76.648H335.667V41.4482H360.386V18.5371L408.163 6.04019V41.4482H458.849V76.648H408.163V111.639C408.163 123.095 413.357 131.218 427.274 131.218C438.699 131.218 444.516 130.177 458.849 127.052V165.376C447.216 168.292 432.26 170.792 416.057 170.792Z" fill="white"/>
<path d="M549.128 170.792C501.558 170.792 475.385 156.004 475.385 128.927C475.385 111.223 486.81 99.3508 516.93 89.1449C502.805 77.6894 497.196 68.1084 497.196 56.028C497.196 31.8672 521.292 16.6626 559.722 16.6626C595.866 16.6626 619.547 31.2424 619.547 53.3203C619.547 70.3995 605.837 82.4799 576.34 90.8112L614.977 117.471C620.378 109.557 623.909 99.5591 625.779 86.8538H662.962C660.885 106.849 653.822 123.512 642.605 136.633L685.812 166.626H628.064L614.977 157.462C597.32 166.209 575.301 170.792 549.128 170.792ZM523.577 121.845C523.577 133.926 536.041 139.758 560.345 139.758C569.901 139.758 578.21 138.924 585.48 137.05L536.664 102.892C528.147 108.099 523.577 114.347 523.577 121.845ZM541.026 59.1522C541.026 64.5676 544.35 68.7332 553.905 75.19L557.645 77.6894C575.509 72.4823 582.364 66.8587 582.364 58.5274C582.364 50.6127 574.678 45.6139 562.215 45.6139C549.128 45.6139 541.026 51.0292 541.026 59.1522Z" fill="white"/>
<path d="M778.92 170.792C718.887 170.792 684.405 156.42 682.535 117.263H733.22C733.22 128.094 744.438 135.384 776.843 135.384C809.872 135.384 816.103 130.801 816.103 122.887C816.103 113.722 810.495 111.848 774.35 109.557L767.08 109.14C709.955 105.808 684.82 91.6443 684.82 59.5688C684.82 28.9513 717.433 13.5384 768.742 13.5384C827.321 13.5384 858.688 31.4507 860.557 64.5676H809.872C809.872 53.1121 796.369 48.9464 768.326 48.9464C741.945 48.9464 735.505 53.1121 735.505 59.5688C735.505 67.2753 741.114 70.1912 774.558 72.4823L783.075 73.1072C833.968 77.0646 866.789 82.4799 866.789 121.012C866.789 158.711 833.968 170.792 778.92 170.792Z" fill="white"/>
<path d="M871.104 166.626V0H919.089V166.626H871.104Z" fill="white"/>
<path d="M929.186 166.626V41.4482H977.171V166.626H929.186ZM929.186 28.743V0H977.171V28.743H929.186Z" fill="white"/>
<path d="M1205.6 105.599C1205.6 83.9379 1196.04 77.2728 1177.35 77.2728C1159.28 77.2728 1144.53 83.7296 1144.53 104.974V166.626H1096.13V105.599C1096.13 83.9379 1086.78 77.2728 1068.08 77.2728C1049.8 77.2728 1035.26 83.7296 1035.26 104.974V166.626H986.655V41.4482H1035.26V62.0682C1048.77 46.447 1066.21 37.2826 1089.9 37.2826C1111.29 37.2826 1130.82 46.0304 1139.54 68.525C1153.67 48.9464 1172.57 37.2826 1199.16 37.2826C1228.24 37.2826 1254 53.5286 1254 97.6845V166.626H1205.6V105.599Z" fill="white"/>
</svg>
