<svg width="131" height="19" viewBox="0 0 131 19" fill="none" xmlns="http://www.w3.org/2000/svg">
<path d="M0 18.514V1.89768H15.9281V5.99391H5.09958V8.3313H15.494V12.0572H5.09958V14.4178H15.9281V18.514H0Z" fill="#272727"/>
<path d="M22.9752 19C19.5899 19 16.9642 17.5883 16.9642 14.3484C16.9642 10.6456 20.6316 9.581 24.364 9.581C26.4906 9.581 28.5088 9.85871 30.2882 10.3447C30.2231 8.53959 28.9645 7.93788 26.3387 7.93788C23.9517 7.93788 21.7166 8.35445 18.6351 9.11815L18.0275 5.29963C20.9137 4.6285 24.0168 4.14251 27.2936 4.14251C32.7837 4.14251 35.3444 6.10962 35.3444 11.2704V18.514H30.2882V16.6857C27.988 18.2363 25.1018 19 22.9752 19ZM22.2157 14.0706C22.2157 14.8806 22.9535 15.4361 24.6678 15.4361C26.1868 15.4361 28.7475 14.8575 30.2882 14.3021V13.1449C28.3569 12.8209 26.6859 12.5664 25.0584 12.5664C22.9535 12.5664 22.2157 13.0061 22.2157 14.0706Z" fill="#272727"/>
<path d="M43.4637 18.9769C39.7095 18.9769 37.648 17.4495 37.648 14.3484V8.51644H35.0657V4.60536H37.648V2.05968L42.6391 0.671132V4.60536H47.934V8.51644H42.6391V12.4044C42.6391 13.6772 43.1816 14.5798 44.6355 14.5798C45.829 14.5798 46.4366 14.4641 47.934 14.1169V18.3752C46.7188 18.6991 45.1563 18.9769 43.4637 18.9769Z" fill="#272727"/>
<path d="M57.365 18.9769C52.3957 18.9769 49.6614 17.3337 49.6614 14.3252C49.6614 12.3581 50.8549 11.039 54.0015 9.90499C52.5259 8.63215 51.9399 7.5676 51.9399 6.22533C51.9399 3.5408 54.4572 1.8514 58.4717 1.8514C62.2476 1.8514 64.7214 3.47138 64.7214 5.92448C64.7214 7.82217 63.2892 9.16443 60.2078 10.0901L64.244 13.0524C64.8082 12.173 65.1771 11.0621 65.3725 9.65043H69.2568C69.0398 11.8721 68.302 13.7235 67.1302 15.1815L71.6439 18.514H65.6112L64.244 17.4957C62.3995 18.4677 60.0993 18.9769 57.365 18.9769ZM54.6959 13.5384C54.6959 14.8806 55.9979 15.5286 58.5368 15.5286C59.5351 15.5286 60.4031 15.4361 61.1626 15.2278L56.063 11.4324C55.1733 12.011 54.6959 12.7052 54.6959 13.5384ZM56.5187 6.57247C56.5187 7.17418 56.8659 7.63703 57.8641 8.35444L58.2547 8.63215C60.121 8.05359 60.8371 7.42874 60.8371 6.50304C60.8371 5.62363 60.0342 5.06821 58.7321 5.06821C57.365 5.06821 56.5187 5.66991 56.5187 6.57247Z" fill="#272727"/>
<path d="M81.3705 18.9769C75.0991 18.9769 71.4968 17.38 71.3015 13.0292H76.5964C76.5964 14.2326 77.7682 15.0426 81.1535 15.0426C84.6038 15.0426 85.2548 14.5335 85.2548 13.6541C85.2548 12.6358 84.6689 12.4275 80.8931 12.173L80.1335 12.1267C74.166 11.7564 71.5402 10.1827 71.5402 6.61876C71.5402 3.21681 74.9472 1.50426 80.3072 1.50426C86.4267 1.50426 89.7034 3.49452 89.8987 7.17418H84.6038C84.6038 5.90134 83.1933 5.43849 80.2637 5.43849C77.5078 5.43849 76.8351 5.90134 76.8351 6.61876C76.8351 7.47503 77.421 7.79902 80.9148 8.05359L81.8045 8.12302C87.1211 8.56273 90.5497 9.16443 90.5497 13.4458C90.5497 17.6346 87.1211 18.9769 81.3705 18.9769Z" fill="#272727"/>
<path d="M91.0005 18.514V0H96.0133V18.514H91.0005Z" fill="#272727"/>
<path d="M97.0681 18.514V4.60536H102.081V18.514H97.0681ZM97.0681 3.19367V0H102.081V3.19367H97.0681Z" fill="#272727"/>
<path d="M125.944 11.7333C125.944 9.32643 124.946 8.58587 122.993 8.58587C121.105 8.58587 119.564 9.30329 119.564 11.6638V18.514H114.508V11.7333C114.508 9.32643 113.531 8.58587 111.578 8.58587C109.669 8.58587 108.15 9.30329 108.15 11.6638V18.514H103.072V4.60536H108.15V6.89647C109.56 5.16078 111.383 4.14251 113.857 4.14251C116.092 4.14251 118.132 5.11449 119.043 7.61388C120.519 5.43849 122.493 4.14251 125.271 4.14251C128.309 4.14251 131 5.94762 131 10.8538V18.514H125.944V11.7333Z" fill="#272727"/>
</svg>
