<svg width="2029" height="2029" viewBox="0 0 2029 2029" fill="none" xmlns="http://www.w3.org/2000/svg">
<g style="mix-blend-mode:soft-light">
<path d="M1014.49 1014.49L878.732 987.7L995.073 1008.32L1014.49 1014.49Z" fill="url(#paint0_radial_311_117)"/>
<path d="M1014.31 1014.39L1014.43 1014.45L1014.29 1014.43L1014.12 1014.37L1014.06 1014.35H1014.04L1013.96 1014.31L1013.82 1014.29V1014.27H1013.74L1013.7 1014.25H1013.68L1013.52 1014.17L1013.43 1014.14L1013.31 1014.12L1013.25 1014.1H1013.23L1013.19 1014.06L1013.07 1014.04L1013.05 1014.02L1012.91 1013.98L1012.78 1013.96L1012.76 1013.94H1012.68V1013.9L1012.46 1013.86L1012.3 1013.8L1011.83 1013.62H1011.71L1011.63 1013.58L1011.42 1013.52H1011.38L1010.94 1013.37V1013.35L1009.64 1012.97L1009.58 1012.95L1008.48 1012.58L1008.36 1012.56L1006.73 1012.01L1006.31 1011.89H1006.26L1000.8 1010.14L1000.68 1010.12L994.931 1008.3L0 693.516V563.141L996.576 1006.53L1004.31 1009.96L1007.32 1011.3L1008.76 1011.95L1009.01 1012.05L1009.03 1012.07H1009.07L1009.76 1012.38L1009.98 1012.48L1010.43 1012.7L1011.36 1013.11H1011.38L1011.59 1013.19L1011.73 1013.25L1011.85 1013.33L1012.07 1013.41L1012.11 1013.43L1012.6 1013.66L1012.72 1013.72L1012.82 1013.74L1012.85 1013.76H1012.87L1012.91 1013.8L1013.01 1013.86L1013.11 1013.88H1013.13L1013.23 1013.94H1013.25V1013.96H1013.29L1013.35 1013.98L1013.43 1014.02L1013.7 1014.12L1013.74 1014.14L1013.82 1014.17L1013.86 1014.21L1013.96 1014.27H1013.98L1014.12 1014.31H1014.15L1014.31 1014.39Z" fill="url(#paint1_radial_311_117)"/>
<path d="M1014.45 1014.45V1014.49L1014.43 1014.45H1014.45Z" fill="url(#paint2_radial_311_117)"/>
<path d="M1013.29 1014.53V1014.57L1013.19 1014.51L1013.29 1014.53Z" fill="url(#paint3_radial_311_117)"/>
<path d="M1013.19 1014.45L1013.29 1014.53L1013.19 1014.51V1014.49L1013.07 1014.43L1012.93 1014.35L1012.91 1014.31H1012.87L1012.78 1014.27H1012.76L1012.68 1014.21L1012.66 1014.17H1012.62V1014.15L1012.48 1014.1L1012.36 1014.02L1011.77 1013.66L1011.71 1013.62L1011.63 1013.58L1011.59 1013.54L1011.46 1013.5H1011.44L1011.18 1013.33L1011.12 1013.25L1010.22 1012.74L1009.76 1012.5L1009.62 1012.42L1009.07 1012.07H1009.03L1009.01 1012.05L1008.8 1011.95L1007.89 1011.38L1005.94 1010.27L1002.63 1008.32L1002.61 1008.3L0 421.432V257.36L1006.45 1009.45L1008.03 1010.61L1009.43 1011.67L1009.76 1011.89L1010.06 1012.13L1010.27 1012.3L1010.51 1012.48L1010.73 1012.6L1011.36 1013.11H1011.38V1013.13L1011.52 1013.21L1011.67 1013.33L1011.73 1013.37L1011.89 1013.52H1011.93L1012.26 1013.76L1012.3 1013.8L1012.44 1013.9L1012.58 1014.02L1012.66 1014.06H1012.68L1012.72 1014.12H1012.76L1012.91 1014.27H1012.93L1013.11 1014.39L1013.13 1014.43L1013.19 1014.45Z" fill="url(#paint4_radial_311_117)"/>
<path d="M1013.29 1014.57V1014.53L1013.31 1014.57H1013.29Z" fill="url(#paint5_radial_311_117)"/>
<path d="M1014.31 1014.31L1014.21 1014.21L1014.04 1014.06L1013.98 1014.02H1013.96L1013.9 1013.94L1013.68 1013.74V1013.72L1013.45 1013.52L1013.37 1013.45L1013.31 1013.37L1013.15 1013.23L1013.01 1013.11H1012.99V1013.07L1012.95 1013.05H1012.93L1012.91 1012.99H1012.87V1012.97L1012.82 1012.95H1012.78L1012.76 1012.89V1012.87L1012.72 1012.82H1012.7L1012.58 1012.72V1012.7L1012.44 1012.56L1012.24 1012.38H1012.22V1012.36L1012.11 1012.28L1011.97 1012.13V1012.11L1011.89 1012.05L1011.63 1011.81L1010.92 1011.14L1010.67 1010.9H1010.65L1010.33 1010.59H1010.31L0 63.7357V0H150.199L1010.49 1009.8L1010.51 1009.82L1011.44 1010.92L1011.73 1011.28L1012.2 1011.79L1012.22 1011.81L1012.32 1011.97L1012.46 1012.13L1012.54 1012.22L1012.62 1012.3L1012.66 1012.36L1012.7 1012.42L1012.82 1012.52L1012.93 1012.66L1013.05 1012.8L1013.07 1012.82L1013.11 1012.89L1013.15 1012.91L1013.23 1013.05H1013.25L1013.29 1013.11L1013.37 1013.19V1013.21L1013.43 1013.25L1013.49 1013.33L1013.54 1013.37L1013.6 1013.43L1013.62 1013.45L1013.66 1013.52V1013.54H1013.68V1013.58L1013.74 1013.6L1013.96 1013.88L1014 1013.96L1014.06 1014.02H1014.08L1014.23 1014.17L1014.31 1014.31Z" fill="url(#paint6_radial_311_117)"/>
<path d="M1014.37 1014.35L1014.39 1014.39L1014.33 1014.37V1014.35H1014.37Z" fill="url(#paint7_radial_311_117)"/>
<path d="M1014.39 1014.39L1014.45 1014.45H1014.43L1014.39 1014.39Z" fill="url(#paint8_radial_311_117)"/>
<path d="M1014.49 1014.45H1014.45V1014.49H1014.49V1014.45Z" fill="url(#paint9_radial_311_117)"/>
<path d="M1013.25 1013.96V1013.94L1013.29 1013.96L1013.43 1014.13L1013.25 1013.96Z" fill="url(#paint10_radial_311_117)"/>
<path d="M1013.43 1014.12L1013.29 1013.96L1013.25 1013.94L1013.19 1013.86V1013.82L1013.15 1013.74L1013.13 1013.72L1013.07 1013.6H1013.05V1013.58L1012.99 1013.52L1012.91 1013.37V1013.35L1012.85 1013.33V1013.25L1012.83 1013.23H1012.78L1012.7 1013.11L1012.66 1012.99L1012.6 1012.95V1012.91L1012.48 1012.76L1012.38 1012.58L1012.24 1012.38H1012.22V1012.36L1012.16 1012.28L1012.14 1012.22L1012.07 1012.13L1011.97 1012.01L1011.85 1011.81H1011.83L1011.46 1011.24H1011.44L1011.2 1010.83L1010.51 1009.82L1010.49 1009.8L327.575 0H482.243L755.669 522.031L1011.79 1011.04L1011.93 1011.3L1012.2 1011.79L1012.22 1011.81L1012.3 1011.97L1012.38 1012.17L1012.4 1012.2L1012.44 1012.28H1012.46L1012.48 1012.36L1012.54 1012.5L1012.66 1012.66L1012.72 1012.82L1012.76 1012.87V1012.89L1012.78 1012.95L1012.85 1013.03V1013.07L1012.87 1013.11L1012.93 1013.19V1013.21L1012.95 1013.23V1013.25L1013.05 1013.41V1013.43H1013.07V1013.49L1013.13 1013.54L1013.19 1013.66V1013.72L1013.23 1013.8L1013.35 1013.98L1013.43 1014.12Z" fill="url(#paint11_radial_311_117)"/>
<path d="M1014.39 1014.1L1014.43 1014.25L1014.37 1014.1L1014.33 1014.06L1014.31 1014.02L1014.25 1013.88L1014.23 1013.74H1014.21V1013.72L1014.15 1013.6V1013.54L1014.12 1013.52L1014.08 1013.43L1014.06 1013.35L1014 1013.19L1013.9 1012.91L1013.86 1012.89L1013.7 1012.44L1013.68 1012.32L1013.62 1012.26V1012.22L1013.58 1012.11L1013.54 1012.01L1013.52 1011.97L1013.5 1011.85L1013.45 1011.79L1013.43 1011.73L1013.37 1011.59L1013.35 1011.57V1011.48H1013.31L1012.54 1009.45V1009.43L618.346 0H744.517L1012.87 1008.32V1008.36L1013.58 1011.02L1013.74 1011.61L1013.76 1011.65V1011.69L1013.78 1011.75V1011.83L1013.82 1011.85V1011.89L1013.84 1011.97V1012.01L1013.86 1012.07L1014.06 1012.87V1012.89H1014.08V1012.91L1014.15 1013.13L1014.19 1013.19V1013.23L1014.21 1013.37L1014.23 1013.49L1014.25 1013.58L1014.29 1013.66L1014.31 1013.74L1014.33 1013.82L1014.37 1013.94L1014.39 1014.1Z" fill="url(#paint12_radial_311_117)"/>
<path d="M1014.45 1014.25V1014.31L1014.43 1014.27V1014.25H1014.45Z" fill="url(#paint13_radial_311_117)"/>
<path d="M1014.51 1014.43V1014.45H1014.47L1014.45 1014.31L1014.47 1014.35L1014.51 1014.43Z" fill="url(#paint14_radial_311_117)"/>
<path d="M1013.68 1013.54V1013.72L1013.66 1013.54V1013.52L1013.62 1013.29L1013.6 1013.21V1013.11L1013.54 1012.82L1013.52 1012.6V1012.58L1013.49 1012.44L1013.45 1012.2L1013.43 1012.11V1012.01L1013.39 1011.85V1011.81L1013.37 1011.73V1011.59L1013.35 1011.57V1011.48L1012.87 1008.36V1008.32L861.386 0H976.224L1013.58 1011.02L1013.6 1011.57V1011.81L1013.62 1011.91V1012.42L1013.66 1012.6V1013.33L1013.68 1013.54Z" fill="url(#paint15_radial_311_117)"/>
<path d="M1205.88 0L1015.69 1008.23L1015.67 1008.28L1015.16 1010.96L1015 1011.85L1014.88 1012.64V1012.66L1014.75 1013.13V1013.15L1014.71 1013.25V1013.37L1014.69 1013.49L1014.67 1013.54L1014.65 1013.74L1014.59 1014.02V1014.06L1014.57 1014.21V1014.25L1014.51 1014.39L1014.53 1014.21V1014.02L1014.57 1013.72V1013.6L1014.59 1013.52V1013.25L1014.63 1013.19V1012.97L1014.65 1012.7L1014.69 1012.05L1014.75 1011.3L1014.92 1009.11V1009.07L1089.99 0H1205.88Z" fill="url(#paint16_radial_311_117)"/>
<path d="M1014.15 1013.21H1014.19V1013.23L1014.12 1013.35L1014.15 1013.21Z" fill="url(#paint17_radial_311_117)"/>
<path d="M1454.12 0L1055.54 917.973L1015.16 1010.96L1014.69 1012.05L1014.45 1012.64L1014.31 1012.97H1014.29V1012.99L1014.25 1013.03L1014.19 1013.21V1013.19L1014.23 1012.99V1012.97L1014.25 1012.95L1014.43 1012.36L1014.75 1011.3L1015.67 1008.28L1015.69 1008.23L1324.76 0H1454.12Z" fill="url(#paint18_radial_311_117)"/>
<path d="M1756.1 0L1017.07 1010.61L1017.05 1010.65L1015.47 1012.8L1015.44 1012.82L1015.12 1013.33L1015.06 1013.37L1015.02 1013.43L1014.96 1013.54L1014.9 1013.6L1014.75 1013.8L1014.59 1014.02L1014.57 1014.04L1014.53 1014.1L1014.51 1014.12V1014.14H1014.47L1014.45 1014.25H1014.43V1014.27L1014.39 1014.29L1014.37 1014.35H1014.33V1014.37L1014.31 1014.39L1014.29 1014.43L1014.21 1014.53L1014.12 1014.65L1014.08 1014.71L1014.06 1014.73L1013.98 1014.84L1013.86 1015L1013.74 1015.18V1015.2L1013.54 1015.44L1013.31 1015.75L1013.52 1015.38L1013.7 1015.1L1013.74 1015.04L1013.84 1014.84L1013.94 1014.67L1014.08 1014.39L1014.12 1014.37V1014.31H1014.15L1014.19 1014.27L1014.21 1014.21L1014.23 1014.17L1014.29 1014.06L1014.31 1014.04V1014.02L1014.37 1013.94L1014.39 1013.86L1014.47 1013.74L1014.51 1013.68L1014.57 1013.6L1014.59 1013.52L1014.69 1013.35V1013.33H1014.71V1013.25H1014.75L1014.77 1013.19L1014.9 1012.99L1014.92 1012.97L1015.99 1011.06L1593.86 0H1756.1Z" fill="url(#paint19_radial_311_117)"/>
<path d="M2028.96 0V130.701L1015.47 1012.8L1015.45 1012.82L1014.98 1013.23L1014.88 1013.35L1014.77 1013.41L1014.69 1013.49L1014.65 1013.52L1014.57 1013.6L1014.51 1013.68H1014.47L1014.33 1013.8V1013.82L1014.29 1013.86L1014.25 1013.88L1014.21 1013.94H1014.19L1014.08 1014.02L1014.06 1014.04L1014.04 1014.06L1013.98 1014.12L1013.9 1014.17L1013.86 1014.21L1013.82 1014.27V1014.29L1013.76 1014.31H1013.74L1013.7 1014.35L1013.66 1014.39V1014.43L1013.5 1014.53V1014.51L1013.62 1014.37L1013.68 1014.31H1013.7V1014.29L1013.74 1014.27H1013.76V1014.25L1013.78 1014.17H1013.82L1013.86 1014.12L1013.94 1014.06L1013.96 1014.02H1013.98V1013.98L1014 1013.96L1014.08 1013.88L1014.15 1013.82V1013.8H1014.19V1013.76L1014.21 1013.74H1014.23L1014.25 1013.68L1014.29 1013.66L1014.33 1013.6L1014.45 1013.45H1014.47L1014.59 1013.33L1014.63 1013.29L1014.67 1013.21L1014.75 1013.15V1013.13L1014.9 1012.99L1014.92 1012.97L1017.05 1010.65L1017.07 1010.61L1944.34 0H2028.96Z" fill="url(#paint20_radial_311_117)"/>
<path d="M2028.96 313.479V470.36L1018.82 1012.8L1018.78 1012.82L1016.99 1013.76L1016.6 1013.98L1016.44 1014.06L1016.42 1014.1L1016.28 1014.14L1015.99 1014.31L1015.97 1014.35L1015.22 1014.73L1015.16 1014.75L1014.98 1014.88L1014.92 1014.9L1014.79 1014.96L1014.65 1015.04L1014.53 1015.1L1014.47 1015.16H1014.43L1014.12 1015.3V1015.34L1013.94 1015.42L1013.84 1015.47L1013.74 1015.53L1013.6 1015.61L1013.31 1015.75L1013.58 1015.59L1013.74 1015.47L1013.82 1015.38L1013.94 1015.34L1014.06 1015.22H1014.08L1014.23 1015.12L1014.53 1014.92L1014.69 1014.77L1014.77 1014.75V1014.73L1014.88 1014.67L1015.02 1014.57L1015.28 1014.39L1015.61 1014.17L1015.69 1014.1L1015.89 1013.98L1015.91 1013.96H1015.93V1013.94H1015.97L1016.16 1013.8L1016.36 1013.66L1017.68 1012.74L1017.7 1012.72L2028.96 313.479Z" fill="url(#paint21_radial_311_117)"/>
<path d="M2028.96 607.215V734.24L1542.74 868.617L1017.29 1013.86L1016.68 1014.02L1016.44 1014.06L1016.42 1014.1L1016.24 1014.12L1015.89 1014.25L1015.77 1014.27L1015.28 1014.39L1014.96 1014.49H1014.92L1014.75 1014.53L1014.69 1014.57L1014.63 1014.59H1014.59L1014.31 1014.65L1014.06 1014.73L1013.96 1014.75L1014.08 1014.71L1014.29 1014.61L1014.53 1014.51H1014.57L1014.69 1014.45L1014.79 1014.39H1014.88L1014.9 1014.37L1015.51 1014.12L1015.67 1014.06L1015.89 1013.98L1015.91 1013.96H1015.97V1013.94L1016.28 1013.82L1016.58 1013.72L1018.78 1012.82L1018.82 1012.8L2028.96 607.215Z" fill="url(#paint22_radial_311_117)"/>
<path d="M2028.96 852.409V967.694L1024.36 1015.22L1020.6 1015.42H1020.58L1019.91 1015.44H1019.53L1018.59 1015.51H1018.55L1017.62 1015.55L1016.85 1015.59L1016.42 1015.61L1015.91 1015.65H1015.53L1015.16 1015.67L1014.31 1015.69H1014.21L1013.98 1015.71H1013.62L1013.31 1015.75L1013.6 1015.69L1013.76 1015.67L1013.94 1015.65H1013.98L1014.19 1015.61H1014.25L1015.02 1015.47H1015.06L1015.36 1015.42L1015.47 1015.38L1015.67 1015.36H1015.69L1016.03 1015.3L1016.42 1015.26L1017.09 1015.16L1017.6 1015.06L1017.76 1015.04H1017.78L1018.55 1014.9H1018.69L1018.88 1014.88L1020.85 1014.53H1020.89L2028.96 852.409Z" fill="url(#paint23_radial_311_117)"/>
<path d="M2028.96 1079.85V1195.48L1110.74 1032.24L1026.68 1017.33H1026.62L1022.49 1016.58L1020.01 1016.14L1019.53 1016.05H1019.51L1017.92 1015.77L1016.85 1015.59L1016.24 1015.47L1015.69 1015.36H1015.67L1015.38 1015.34V1015.3H1015.28L1015.06 1015.26H1014.96L1014.8 1015.22L1014.43 1015.16L1014.23 1015.12L1014.47 1015.16H1014.71L1014.9 1015.18H1015.24L1015.34 1015.2H1015.55L1015.91 1015.22L1016.42 1015.26L1017.31 1015.3L1018.29 1015.36L1018.37 1015.38L1019.53 1015.45H1019.57L1019.99 1015.47L1021.05 1015.55H1021.09L1028.36 1016.03H1028.42L2028.96 1079.85Z" fill="url(#paint24_radial_311_117)"/>
<path d="M1138.81 1052.9L1035.15 1022.21L1030.72 1020.89L1024.81 1019.14H1024.77L1020.91 1017.98L1018.82 1017.37L1018.78 1017.35L1017.01 1016.85L1016.99 1016.83H1016.93L1016.16 1016.6V1016.58L1015.91 1016.52L1015.55 1016.42L1014.53 1016.12L1014.31 1016.05L1014.04 1015.97L1014 1015.95L1013.76 1015.89L1013.66 1015.87V1015.83L1013.31 1015.75L1013.62 1015.81L1013.76 1015.83L1014 1015.87L1014.25 1015.91L1014.45 1015.95L1015.4 1016.12V1016.14L1015.61 1016.18L1015.89 1016.2V1016.22L1016.44 1016.3H1016.5L1017.6 1016.52H1017.62L1019.32 1016.83L1021.46 1017.19L1023 1017.46L1025.44 1017.9L1032.28 1019.12L1138.81 1052.9Z" fill="url(#paint25_radial_311_117)"/>
<path d="M1138.81 1052.9L1035.15 1022.21L1030.72 1020.89L1024.81 1019.14H1024.77L1020.91 1017.98L1018.82 1017.37L1018.78 1017.35L1017.01 1016.85L1016.99 1016.83H1016.93L1016.16 1016.6V1016.58L1015.91 1016.52L1015.55 1016.42L1014.53 1016.12L1014.31 1016.05L1014.04 1015.97L1014 1015.95L1013.76 1015.89L1013.66 1015.87V1015.83L1013.31 1015.75L1013.62 1015.81L1013.76 1015.83L1014 1015.87L1014.25 1015.91L1014.45 1015.95L1015.4 1016.12V1016.14L1015.61 1016.18L1015.89 1016.2V1016.22L1016.44 1016.3H1016.5L1017.6 1016.52H1017.62L1019.32 1016.83L1021.46 1017.19L1023 1017.46L1025.44 1017.9L1032.28 1019.12L1138.81 1052.9Z" fill="url(#paint26_radial_311_117)"/>
<path d="M1148.62 1039.74L1032.36 1019.12H1032.28L1026.68 1017.33H1026.62L1021.09 1015.55H1021.05L1020.58 1015.42L1018.98 1014.9H1018.94L1018.88 1014.88L1017.92 1014.57L1017.78 1014.51H1017.76L1016.42 1014.1L1015.97 1013.96V1013.94H1015.93L1015.83 1013.9L1015.65 1013.86L1015.55 1013.82L1015.14 1013.68L1014.9 1013.6L1014.67 1013.54L1014.65 1013.52H1014.59L1014.47 1013.45H1014.45L1014.31 1013.43L1014.29 1013.41L1014.21 1013.37L1014.12 1013.35H1014.06L1013.92 1013.29L1013.86 1013.25L1013.68 1013.21H1013.66L1013.62 1013.19H1013.54L1013.39 1013.13L1013.29 1013.11L1013.23 1013.07L1013.07 1013.03L1012.93 1012.99V1012.97L1013.07 1012.99L1013.23 1013.05H1013.25L1013.43 1013.07L1013.52 1013.11H1013.62L1013.66 1013.13H1013.74L1013.82 1013.15L1014 1013.19L1014.15 1013.21H1014.19L1014.39 1013.25H1014.45L1014.59 1013.29H1014.61L1014.65 1013.33H1014.71L1014.88 1013.35L1014.92 1013.37H1015.06L1015.47 1013.49L1015.85 1013.54L1016.07 1013.6L1016.36 1013.66L1016.58 1013.72L1016.99 1013.76L1017.29 1013.86L1019 1014.17L1020.85 1014.53H1020.89L1021.92 1014.75L1024.36 1015.22L1028.36 1016.03H1028.4L1110.74 1032.24L1148.62 1039.74Z" fill="url(#paint27_radial_311_117)"/>
<path d="M1012.93 1012.97V1012.99H1012.91L1012.87 1012.97H1012.93Z" fill="url(#paint28_radial_311_117)"/>
<path d="M2028.96 1334.45V1465.01L1030.72 1020.89L1023 1017.46L1020.02 1016.14L1018.59 1015.51H1018.55L1018.37 1015.38L1018.29 1015.36L1017.6 1015.06L1017.37 1014.98L1016.91 1014.75L1016.07 1014.39L1015.97 1014.35L1015.77 1014.27L1015.61 1014.17L1015.51 1014.12L1015.28 1014.04L1014.75 1013.8L1014.65 1013.74L1014.57 1013.72L1014.51 1013.68H1014.47L1014.33 1013.6L1014.25 1013.58L1014.19 1013.54H1014.15L1014.12 1013.52L1014.06 1013.5L1013.96 1013.43L1013.66 1013.33L1013.62 1013.29L1013.58 1013.25H1013.54L1013.5 1013.23L1013.39 1013.19H1013.37L1013.23 1013.13H1013.19L1013.05 1013.05L1012.93 1012.99L1013.07 1013.03L1013.23 1013.07L1013.29 1013.11L1013.39 1013.13L1013.54 1013.19H1013.62L1013.66 1013.21H1013.68L1013.86 1013.25L1013.94 1013.29L1014.06 1013.35H1014.12L1014.21 1013.37L1014.29 1013.41L1014.31 1013.43L1014.45 1013.45H1014.47L1014.59 1013.52H1014.65L1014.67 1013.54L1014.9 1013.6L1015.14 1013.68L1015.55 1013.82L1015.65 1013.86L1015.83 1013.9L1015.93 1013.94H1015.97V1013.96L1016.42 1014.1L1017.76 1014.51H1017.78L1017.92 1014.57L1018.88 1014.88L1018.94 1014.9H1018.98L1020.6 1015.42L1021.05 1015.55H1021.09L1026.62 1017.33H1026.68L1032.28 1019.12H1032.36L1142.39 1053.93L2028.96 1334.45Z" fill="url(#paint29_radial_311_117)"/>
<path d="M1014.07 1012.87V1012.89L1013.98 1012.8L1014.07 1012.87Z" fill="url(#paint30_radial_311_117)"/>
<path d="M2028.96 1606.92V1771.28L1020.91 1017.98L1019.32 1016.83L1017.92 1015.77L1017.62 1015.55L1017.31 1015.3L1017.09 1015.16L1016.87 1014.98L1016.66 1014.82L1016.08 1014.39L1015.99 1014.31L1015.89 1014.25L1015.69 1014.1L1015.67 1014.06L1015.47 1013.94L1015.45 1013.9L1015.14 1013.68L1014.96 1013.54L1014.78 1013.41L1014.71 1013.37L1014.69 1013.35L1014.65 1013.33L1014.63 1013.29H1014.59V1013.25L1014.45 1013.19V1013.15L1014.25 1013.03L1014.23 1012.99L1014.19 1012.97L1014.08 1012.91L1014.06 1012.89L1014.19 1012.95L1014.29 1012.99L1014.45 1013.11H1014.47L1014.51 1013.13L1014.63 1013.19L1014.67 1013.21L1014.71 1013.25H1014.75L1014.88 1013.35L1014.92 1013.37L1015.02 1013.43L1015.61 1013.76L1015.69 1013.82L1015.83 1013.9L1015.91 1013.96H1015.97L1016.24 1014.12L1016.28 1014.15L1017.15 1014.67H1017.17L1017.62 1014.96L1017.76 1015.04H1017.78L1018.37 1015.38L1018.55 1015.51H1018.59L1019.51 1016.05H1019.53L1021.46 1017.19L1024.77 1019.14H1024.81L2028.96 1606.92Z" fill="url(#paint31_radial_311_117)"/>
<path d="M1012.95 1013.05L1013.01 1013.07H1012.99L1012.95 1013.05Z" fill="url(#paint32_radial_311_117)"/>
<path d="M1012.95 1013.05L1013.01 1013.07H1012.99L1012.95 1013.05Z" fill="url(#paint33_radial_311_117)"/>
<path d="M1012.87 1012.97L1012.91 1012.99H1012.87V1012.97Z" fill="url(#paint34_radial_311_117)"/>
<path d="M1012.93 1012.99L1012.95 1013.05H1012.93L1012.91 1012.99H1012.93Z" fill="url(#paint35_radial_311_117)"/>
<path d="M1013.03 1013.07H1012.99V1013.11H1013.03V1013.07Z" fill="url(#paint36_radial_311_117)"/>
<path d="M2028.96 1965.27V2028.94H1878.48L1016.87 1017.66L1016.85 1017.62L1015.91 1016.52L1015.61 1016.18L1015.16 1015.67L1015.14 1015.65L1015.02 1015.47L1014.9 1015.3L1014.79 1015.22L1014.71 1015.16L1014.69 1015.1L1014.65 1015.04L1014.53 1014.92L1014.43 1014.77L1014.31 1014.65L1014.29 1014.61L1014.25 1014.59L1014.21 1014.53L1014.08 1014.39L1014.06 1014.35H1014.04L1013.98 1014.27V1014.25L1013.9 1014.17L1013.86 1014.12L1013.82 1014.06L1013.76 1013.98L1013.7 1013.96L1013.68 1013.9L1013.62 1013.86L1013.39 1013.6L1013.35 1013.5L1013.29 1013.43H1013.25L1013.13 1013.25L1013.01 1013.11L1013.15 1013.23L1013.31 1013.37L1013.39 1013.43L1013.45 1013.52L1013.68 1013.72V1013.74L1013.9 1013.94L1013.98 1013.98V1014.02L1014.04 1014.06L1014.21 1014.21L1014.31 1014.31L1014.33 1014.35H1014.37L1014.39 1014.39L1014.43 1014.45H1014.47V1014.49H1014.51L1014.53 1014.51L1014.59 1014.57V1014.59H1014.63V1014.61H1014.65L1014.77 1014.73V1014.75L1014.92 1014.9L1015.12 1015.06H1015.14V1015.1L1015.24 1015.18L1015.38 1015.3V1015.34L1015.47 1015.38L1015.71 1015.65L1016.44 1016.3L1016.68 1016.56H1016.72L1016.99 1016.83L1017.01 1016.85L2028.96 1965.27Z" fill="url(#paint37_radial_311_117)"/>
<path d="M1700.84 2028.94H1545.91L1268.38 1499.07L1015.55 1016.42L1015.4 1016.12L1015.16 1015.67L1015.14 1015.65L1015.06 1015.47L1014.98 1015.28L1014.96 1015.26L1014.9 1015.18L1014.88 1015.1L1014.79 1014.96L1014.69 1014.77L1014.63 1014.61V1014.59H1014.59V1014.57L1014.57 1014.51L1014.53 1014.43H1014.51V1014.39L1014.45 1014.31L1014.43 1014.27V1014.25L1014.33 1014.06L1014.31 1014.04V1014.02L1014.23 1013.9L1014.19 1013.8V1013.76L1014.12 1013.66L1014 1013.45L1013.94 1013.29L1014.06 1013.5L1014.15 1013.6L1014.21 1013.72V1013.74H1014.23L1014.29 1013.86L1014.37 1013.94L1014.51 1014.12V1014.17H1014.53V1014.21H1014.57V1014.25L1014.65 1014.37L1014.69 1014.45L1014.75 1014.51V1014.53L1014.88 1014.67L1014.98 1014.88L1015.12 1015.06H1015.14V1015.1L1015.2 1015.18L1015.22 1015.22L1015.28 1015.3L1015.36 1015.42L1015.53 1015.65L1015.89 1016.22L1016.16 1016.58L1016.85 1017.62L1016.87 1017.66L1700.84 2028.94Z" fill="url(#paint38_radial_311_117)"/>
<path d="M1012.93 1013.05L1012.95 1013.15L1012.91 1012.99L1012.93 1013.05Z" fill="url(#paint39_radial_311_117)"/>
<path d="M1012.93 1013.05L1012.95 1013.15L1012.91 1012.99L1012.93 1013.05Z" fill="url(#paint40_radial_311_117)"/>
<path d="M1409.58 2028.94H1283.25L1014.45 1018.9V1018.88L1013.78 1016.34L1013.66 1015.83L1013.62 1015.81V1015.71L1013.6 1015.69V1015.61L1013.58 1015.59V1015.53L1013.54 1015.44L1013.52 1015.38V1015.3L1013.29 1014.57V1014.53L1013.19 1014.27V1014.17V1014.06L1013.15 1013.96L1013.13 1013.88L1013.11 1013.86V1013.74L1013.05 1013.6V1013.58L1013.01 1013.5L1012.99 1013.37L1012.95 1013.23L1012.93 1013.21V1013.19L1012.87 1013.03V1012.99H1012.91L1012.95 1013.15L1013.05 1013.41V1013.43H1013.07V1013.5L1013.11 1013.58L1013.15 1013.68L1013.19 1013.72V1013.82V1013.86L1013.23 1013.94H1013.25V1013.96L1013.31 1014.1V1014.12L1013.37 1014.27L1013.5 1014.51V1014.53L1013.66 1014.96V1014.98L1013.7 1015.1L1013.74 1015.16V1015.2L1013.78 1015.34L1013.82 1015.38L1013.84 1015.47L1013.9 1015.59L1013.94 1015.65L1013.96 1015.71L1013.98 1015.83L1014 1015.87L1014.04 1015.97L1014.78 1017.82V1017.84L1409.58 2028.94Z" fill="url(#paint41_radial_311_117)"/>
<path d="M1166.17 2028.94H1051.19L1013.78 1016.34L1013.76 1015.89V1015.65L1013.74 1015.53V1015.04L1013.7 1014.82V1014.12L1013.68 1013.9V1013.74L1013.7 1013.9V1013.96L1013.74 1014.15L1013.76 1014.25V1014.35L1013.82 1014.61L1013.84 1014.77V1014.84L1013.86 1015L1013.9 1015.22L1013.94 1015.34V1015.42L1013.96 1015.59L1013.98 1015.65V1015.83L1014 1015.87V1015.95L1014.45 1018.88V1018.9L1166.17 2028.94Z" fill="url(#paint42_radial_311_117)"/>
<path d="M1012.87 1013.03V1013.11L1012.85 1013.25V1013.45L1012.83 1013.74V1013.86L1012.78 1013.94V1014.27H1012.76V1014.45L1012.72 1014.67L1012.7 1015.3L1012.66 1015.99V1016.03L1012.48 1018.09V1018.13L937.248 2028.94H821.191L1011.73 1018.98V1018.96L1012.24 1016.4L1012.4 1015.47L1012.52 1014.82L1012.54 1014.77L1012.62 1014.29V1014.27L1012.66 1014.17V1014.06H1012.68V1013.9H1012.7L1012.72 1013.72L1012.78 1013.41V1013.37L1012.83 1013.23L1012.85 1013.07L1012.87 1013.03Z" fill="url(#paint43_radial_311_117)"/>
<path d="M1013.19 1014.17L1013.23 1014.1V1014.25H1013.19V1014.17Z" fill="url(#paint44_radial_311_117)"/>
<path d="M1013.25 1014.02V1014.11H1013.23V1014.06L1013.25 1014.02Z" fill="url(#paint45_radial_311_117)"/>
<path d="M1013.19 1014.17V1014.25L1013.13 1014.43V1014.49L1012.95 1015.04L1012.66 1015.99V1016.03L1011.73 1018.96V1018.98L702.128 2028.94H572.564L971.816 1109.46L1012.24 1016.4L1012.7 1015.3L1012.93 1014.75L1013.07 1014.49V1014.43L1013.11 1014.39L1013.19 1014.21V1014.17Z" fill="url(#paint46_radial_311_117)"/>
<path d="M1014.04 1011.69L1013.84 1012.01L1013.68 1012.32L1013.62 1012.42L1013.52 1012.58V1012.6L1013.5 1012.66V1012.7H1013.46L1013.43 1012.76L1013.25 1013.05L1013.23 1013.07V1013.13H1013.19V1013.19L1013.15 1013.23L1013.13 1013.25L1013.11 1013.35L1013.05 1013.41V1013.43L1013.01 1013.49L1012.99 1013.52L1012.95 1013.6L1012.85 1013.76L1012.83 1013.8V1013.86L1012.76 1013.94L1012.68 1014.06L1012.66 1014.1V1014.12L1012.62 1014.14V1014.17L1012.58 1014.27L1012.46 1014.45L1012.44 1014.49L1011.36 1016.36L1011.3 1016.42L1011.28 1016.44L432.603 2028.94H270.116L1010.27 1016.83L1011.89 1014.59H1011.93L1012.26 1014.12L1012.32 1014.04L1012.36 1014.02L1012.44 1013.9L1012.46 1013.86L1012.6 1013.66L1012.79 1013.41V1013.37L1012.85 1013.33V1013.29H1012.87V1013.25L1012.93 1013.21V1013.19L1012.95 1013.15L1012.99 1013.11H1013.01V1013.07L1013.05 1013.05L1013.07 1013.03V1012.99L1013.15 1012.91L1013.19 1012.82L1013.23 1012.76H1013.25L1013.29 1012.72L1013.37 1012.6L1013.46 1012.5L1013.5 1012.44L1013.62 1012.26L1013.84 1011.97L1014.04 1011.69Z" fill="url(#paint47_radial_311_117)"/>
<path d="M1013.98 1012.8L1013.9 1012.91L1013.76 1013.05V1013.07L1013.68 1013.13L1013.66 1013.15L1013.62 1013.19L1013.6 1013.21L1013.58 1013.25H1013.54L1013.49 1013.33L1013.43 1013.37L1013.39 1013.43L1013.37 1013.45L1013.25 1013.58L1013.23 1013.62L1013.19 1013.66V1013.68H1013.15L1013.13 1013.72L1013.11 1013.74V1013.76L1013.01 1013.86L1012.91 1013.96V1013.98L1012.76 1014.12H1012.72L1012.68 1014.21L1012.62 1014.27V1014.29L1012.46 1014.45L1012.44 1014.49L1010.27 1016.83L81.6093 2028.94H0V1895.33L1011.89 1014.59H1011.93L1012.4 1014.17L1012.48 1014.1L1012.58 1014.02L1012.68 1013.94V1013.9H1012.7L1012.82 1013.82V1013.8L1012.85 1013.76H1012.87L1012.91 1013.74L1013.01 1013.66L1013.05 1013.6H1013.07L1013.11 1013.58L1013.13 1013.54L1013.15 1013.52H1013.19L1013.25 1013.43H1013.29L1013.31 1013.37L1013.37 1013.33L1013.43 1013.25L1013.49 1013.23L1013.54 1013.19L1013.6 1013.13L1013.62 1013.11L1013.66 1013.07L1013.74 1013.03L1013.86 1012.89L1013.98 1012.8Z" fill="url(#paint48_radial_311_117)"/>
<path d="M1014.04 1011.69L1013.82 1011.85L1013.62 1011.99L1013.54 1012.01L1013.43 1012.11L1013.31 1012.2L1013.29 1012.22L1013.13 1012.32L1012.82 1012.52L1012.66 1012.66L1012.58 1012.7V1012.72L1012.48 1012.76L1012.32 1012.89L1012.05 1013.07L1011.73 1013.25L1011.67 1013.33L1011.46 1013.49H1011.42V1013.52H1011.38L1011.22 1013.66L1011 1013.8L1009.58 1014.77H1009.55L0 1712.88V1556.22L1008.46 1014.67H1008.48L1010.35 1013.66L1010.77 1013.45L1010.87 1013.37L1010.94 1013.35H1010.98L1011.12 1013.25L1011.38 1013.13V1013.11L1012.13 1012.72L1012.2 1012.7L1012.38 1012.58L1012.54 1012.5L1012.7 1012.42L1012.82 1012.36L1012.87 1012.3H1012.93L1013.25 1012.11L1013.43 1012.01L1013.52 1011.97L1013.62 1011.91L1013.78 1011.83L1014.04 1011.69Z" fill="url(#paint49_radial_311_117)"/>
<path d="M1013.5 1012.7L1013.39 1012.72V1012.7H1013.5Z" fill="url(#paint50_radial_311_117)"/>
<path d="M1013.29 1012.72L1013.39 1012.7V1012.72L1013.25 1012.76L1013.07 1012.82L1012.82 1012.95H1012.78L1012.66 1012.99L1012.54 1013.05L1012.44 1013.11L1011.85 1013.33L1011.73 1013.37L1011.46 1013.49H1011.42V1013.52H1011.38L1011.14 1013.62L1010.79 1013.74L1008.48 1014.67H1008.46L0 1419.57V1292.75L483.4 1159.19L1010.08 1013.6L1010.73 1013.43L1010.87 1013.37H1010.94L1010.98 1013.35L1011.18 1013.33L1011.52 1013.21L1011.59 1013.19L1012.05 1013.07L1012.4 1012.97H1012.44L1012.6 1012.91H1012.66L1012.76 1012.89V1012.87L1013.05 1012.8L1013.29 1012.72Z" fill="url(#paint51_radial_311_117)"/>
<path d="M1013.5 1012.66V1012.7H1013.39L1013.5 1012.66Z" fill="url(#paint52_radial_311_117)"/>
<path d="M1014.04 1011.69L1013.78 1011.75L1013.6 1011.79H1013.45L1013.39 1011.81L1013.19 1011.83H1013.13L1012.32 1011.97H1012.3L1011.97 1012.01L1011.89 1012.05L1011.69 1012.07H1011.67L1011.3 1012.13L1010.94 1012.2L1010.27 1012.3L1009.76 1012.38L1009.62 1012.42L1008.78 1012.56H1008.7L1008.5 1012.58H1008.48L1006.49 1012.91L0 1174.74V1059.66L1003.01 1012.22L1006.73 1012.01H1006.79L1007.5 1011.99H1007.81L1008.76 1011.95H1008.8L1009.76 1011.89L1010.51 1011.85L1010.94 1011.83L1011.44 1011.81H1011.83L1012.2 1011.79L1013.07 1011.75H1013.15L1013.37 1011.73H1013.6L1013.76 1011.69H1014.04Z" fill="url(#paint53_radial_311_117)"/>
<path d="M1013.13 1012.32L1012.87 1012.3H1012.62L1012.46 1012.28H1012.11L1012.01 1012.26H1011.79L1011.44 1012.22L1010.94 1012.2L1010.06 1012.13L1009.07 1012.07H1009.03L1009.01 1012.05L1007.81 1011.99H1007.79L1007.4 1011.97L1006.35 1011.89H1006.26L999.034 1011.42H998.993L0 947.647V832.281L917.018 995.236L1000.68 1010.12L1000.8 1010.14L1004.98 1010.9L1007.32 1011.3L1007.89 1011.38L1009.43 1011.67L1010.51 1011.85L1011.12 1011.97L1011.67 1012.07H1011.69L1011.97 1012.11V1012.13H1012.07L1012.3 1012.2H1012.4L1012.54 1012.22L1012.93 1012.3L1013.13 1012.32Z" fill="url(#paint54_radial_311_117)"/>
<path d="M1014.04 1011.69L995.073 1008.32L888.481 974.539L1014.04 1011.69Z" fill="url(#paint55_radial_311_117)"/>
</g>
<defs>
<radialGradient id="paint0_radial_311_117" cx="0" cy="0" r="1" gradientUnits="userSpaceOnUse" gradientTransform="translate(946.612 1001.1) rotate(97.0826) scale(14.0454 70.1347)">
<stop stop-color="white" stop-opacity="0.11"/>
<stop offset="1" stop-color="white" stop-opacity="0"/>
</radialGradient>
<radialGradient id="paint1_radial_311_117" cx="0" cy="0" r="1" gradientUnits="userSpaceOnUse" gradientTransform="translate(507.215 788.795) rotate(93.1545) scale(235.161 527.298)">
<stop stop-color="white" stop-opacity="0.11"/>
<stop offset="1" stop-color="white" stop-opacity="0"/>
</radialGradient>
<radialGradient id="paint2_radial_311_117" cx="0" cy="0" r="1" gradientUnits="userSpaceOnUse" gradientTransform="translate(1014.44 1014.47) rotate(90.7002) scale(0.0219258 0.0109344)">
<stop stop-color="white" stop-opacity="0.11"/>
<stop offset="1" stop-color="white" stop-opacity="0"/>
</radialGradient>
<radialGradient id="paint3_radial_311_117" cx="0" cy="0" r="1" gradientUnits="userSpaceOnUse" gradientTransform="translate(1013.24 1014.54) rotate(92.341) scale(0.0320275 0.0533438)">
<stop stop-color="white" stop-opacity="0.11"/>
<stop offset="1" stop-color="white" stop-opacity="0"/>
</radialGradient>
<radialGradient id="paint4_radial_311_117" cx="0" cy="0" r="1" gradientUnits="userSpaceOnUse" gradientTransform="translate(506.646 635.945) rotate(91.8793) scale(394.149 527.223)">
<stop stop-color="white" stop-opacity="0.11"/>
<stop offset="1" stop-color="white" stop-opacity="0"/>
</radialGradient>
<radialGradient id="paint5_radial_311_117" cx="0" cy="0" r="1" gradientUnits="userSpaceOnUse" gradientTransform="translate(1013.3 1014.55) rotate(90.7013) scale(0.0218924 0.0109344)">
<stop stop-color="white" stop-opacity="0.11"/>
<stop offset="1" stop-color="white" stop-opacity="0"/>
</radialGradient>
<radialGradient id="paint6_radial_311_117" cx="0" cy="0" r="1" gradientUnits="userSpaceOnUse" gradientTransform="translate(507.154 507.154) rotate(91.4045) scale(527.876 527.877)">
<stop stop-color="white" stop-opacity="0.11"/>
<stop offset="1" stop-color="white" stop-opacity="0"/>
</radialGradient>
<radialGradient id="paint7_radial_311_117" cx="0" cy="0" r="1" gradientUnits="userSpaceOnUse" gradientTransform="translate(1014.36 1014.37) rotate(92.1074) scale(0.0215755 0.0323553)">
<stop stop-color="white" stop-opacity="0.11"/>
<stop offset="1" stop-color="white" stop-opacity="0"/>
</radialGradient>
<radialGradient id="paint8_radial_311_117" cx="0" cy="0" r="1" gradientUnits="userSpaceOnUse" gradientTransform="translate(1014.42 1014.42) rotate(91.4045) scale(0.0323675)">
<stop stop-color="white" stop-opacity="0.11"/>
<stop offset="1" stop-color="white" stop-opacity="0"/>
</radialGradient>
<radialGradient id="paint9_radial_311_117" cx="0" cy="0" r="1" gradientUnits="userSpaceOnUse" gradientTransform="translate(1014.47 1014.47) rotate(91.4045) scale(0.0219308)">
<stop stop-color="white" stop-opacity="0.11"/>
<stop offset="1" stop-color="white" stop-opacity="0"/>
</radialGradient>
<radialGradient id="paint10_radial_311_117" cx="0" cy="0" r="1" gradientUnits="userSpaceOnUse" gradientTransform="translate(1013.34 1014.03) rotate(91.4045) scale(0.0955051)">
<stop stop-color="white" stop-opacity="0.11"/>
<stop offset="1" stop-color="white" stop-opacity="0"/>
</radialGradient>
<radialGradient id="paint11_radial_311_117" cx="0" cy="0" r="1" gradientUnits="userSpaceOnUse" gradientTransform="translate(670.505 507.062) rotate(90.95) scale(527.695 357)">
<stop stop-color="white" stop-opacity="0.11"/>
<stop offset="1" stop-color="white" stop-opacity="0"/>
</radialGradient>
<radialGradient id="paint12_radial_311_117" cx="0" cy="0" r="1" gradientUnits="userSpaceOnUse" gradientTransform="translate(816.388 507.123) rotate(90.5486) scale(527.71 206.186)">
<stop stop-color="white" stop-opacity="0.11"/>
<stop offset="1" stop-color="white" stop-opacity="0"/>
</radialGradient>
<radialGradient id="paint13_radial_311_117" cx="0" cy="0" r="1" gradientUnits="userSpaceOnUse" gradientTransform="translate(1014.44 1014.28) rotate(90.4668) scale(0.0323918 0.0107701)">
<stop stop-color="white" stop-opacity="0.11"/>
<stop offset="1" stop-color="white" stop-opacity="0"/>
</radialGradient>
<radialGradient id="paint14_radial_311_117" cx="0" cy="0" r="1" gradientUnits="userSpaceOnUse" gradientTransform="translate(1014.48 1014.38) rotate(90.6022) scale(0.0745252 0.0319643)">
<stop stop-color="white" stop-opacity="0.11"/>
<stop offset="1" stop-color="white" stop-opacity="0"/>
</radialGradient>
<radialGradient id="paint15_radial_311_117" cx="0" cy="0" r="1" gradientUnits="userSpaceOnUse" gradientTransform="translate(937.532 506.859) rotate(90.211) scale(527.415 79.2803)">
<stop stop-color="white" stop-opacity="0.11"/>
<stop offset="1" stop-color="white" stop-opacity="0"/>
</radialGradient>
<radialGradient id="paint16_radial_311_117" cx="0" cy="0" r="1" gradientUnits="userSpaceOnUse" gradientTransform="translate(1110.2 507.194) rotate(90.265) scale(527.766 99.6235)">
<stop stop-color="white" stop-opacity="0.11"/>
<stop offset="1" stop-color="white" stop-opacity="0"/>
</radialGradient>
<radialGradient id="paint17_radial_311_117" cx="0" cy="0" r="1" gradientUnits="userSpaceOnUse" gradientTransform="translate(1014.16 1013.28) rotate(90.602) scale(0.0745577 0.0319643)">
<stop stop-color="white" stop-opacity="0.11"/>
<stop offset="1" stop-color="white" stop-opacity="0"/>
</radialGradient>
<radialGradient id="paint18_radial_311_117" cx="0" cy="0" r="1" gradientUnits="userSpaceOnUse" gradientTransform="translate(1234.15 506.605) rotate(90.6099) scale(527.177 229.011)">
<stop stop-color="white" stop-opacity="0.11"/>
<stop offset="1" stop-color="white" stop-opacity="0"/>
</radialGradient>
<radialGradient id="paint19_radial_311_117" cx="0" cy="0" r="1" gradientUnits="userSpaceOnUse" gradientTransform="translate(1384.71 507.875) rotate(91.0272) scale(528.553 386.625)">
<stop stop-color="white" stop-opacity="0.11"/>
<stop offset="1" stop-color="white" stop-opacity="0"/>
</radialGradient>
<radialGradient id="paint20_radial_311_117" cx="0" cy="0" r="1" gradientUnits="userSpaceOnUse" gradientTransform="translate(1521.23 507.265) rotate(91.4058) scale(527.993 528.479)">
<stop stop-color="white" stop-opacity="0.11"/>
<stop offset="1" stop-color="white" stop-opacity="0"/>
</radialGradient>
<radialGradient id="paint21_radial_311_117" cx="0" cy="0" r="1" gradientUnits="userSpaceOnUse" gradientTransform="translate(1521.14 664.614) rotate(92.0309) scale(365.603 528.401)">
<stop stop-color="white" stop-opacity="0.11"/>
<stop offset="1" stop-color="white" stop-opacity="0"/>
</radialGradient>
<radialGradient id="paint22_radial_311_117" cx="0" cy="0" r="1" gradientUnits="userSpaceOnUse" gradientTransform="translate(1521.46 810.985) rotate(93.4945) scale(212.427 527.412)">
<stop stop-color="white" stop-opacity="0.11"/>
<stop offset="1" stop-color="white" stop-opacity="0"/>
</radialGradient>
<radialGradient id="paint23_radial_311_117" cx="0" cy="0" r="1" gradientUnits="userSpaceOnUse" gradientTransform="translate(1521.14 934.079) rotate(98.6684) scale(85.9638 522.693)">
<stop stop-color="white" stop-opacity="0.11"/>
<stop offset="1" stop-color="white" stop-opacity="0"/>
</radialGradient>
<radialGradient id="paint24_radial_311_117" cx="0" cy="0" r="1" gradientUnits="userSpaceOnUse" gradientTransform="translate(1521.59 1105.3) rotate(97.8541) scale(94.7258 523.302)">
<stop stop-color="white" stop-opacity="0.11"/>
<stop offset="1" stop-color="white" stop-opacity="0"/>
</radialGradient>
<radialGradient id="paint25_radial_311_117" cx="0" cy="0" r="1" gradientUnits="userSpaceOnUse" gradientTransform="translate(1076.06 1034.32) rotate(94.7352) scale(19.3937 65.1113)">
<stop stop-color="white" stop-opacity="0.11"/>
<stop offset="1" stop-color="white" stop-opacity="0"/>
</radialGradient>
<radialGradient id="paint26_radial_311_117" cx="0" cy="0" r="1" gradientUnits="userSpaceOnUse" gradientTransform="translate(1076.06 1034.32) rotate(94.7352) scale(19.3937 65.1113)">
<stop stop-color="white" stop-opacity="0.11"/>
<stop offset="1" stop-color="white" stop-opacity="0"/>
</radialGradient>
<radialGradient id="paint27_radial_311_117" cx="0" cy="0" r="1" gradientUnits="userSpaceOnUse" gradientTransform="translate(1080.78 1026.35) rotate(97.0848) scale(14.0348 70.1029)">
<stop stop-color="white" stop-opacity="0.11"/>
<stop offset="1" stop-color="white" stop-opacity="0"/>
</radialGradient>
<radialGradient id="paint28_radial_311_117" cx="0" cy="0" r="1" gradientUnits="userSpaceOnUse" gradientTransform="translate(1012.9 1012.98) rotate(94.2154) scale(0.0107932 0.0322896)">
<stop stop-color="white" stop-opacity="0.11"/>
<stop offset="1" stop-color="white" stop-opacity="0"/>
</radialGradient>
<radialGradient id="paint29_radial_311_117" cx="0" cy="0" r="1" gradientUnits="userSpaceOnUse" gradientTransform="translate(1520.94 1239) rotate(93.1545) scale(235.531 528.133)">
<stop stop-color="white" stop-opacity="0.11"/>
<stop offset="1" stop-color="white" stop-opacity="0"/>
</radialGradient>
<radialGradient id="paint30_radial_311_117" cx="0" cy="0" r="1" gradientUnits="userSpaceOnUse" gradientTransform="translate(1014.02 1012.85) rotate(91.4035) scale(0.0432519 0.043219)">
<stop stop-color="white" stop-opacity="0.11"/>
<stop offset="1" stop-color="white" stop-opacity="0"/>
</radialGradient>
<radialGradient id="paint31_radial_311_117" cx="0" cy="0" r="1" gradientUnits="userSpaceOnUse" gradientTransform="translate(1521.51 1392.08) rotate(91.8793) scale(394.783 528.058)">
<stop stop-color="white" stop-opacity="0.11"/>
<stop offset="1" stop-color="white" stop-opacity="0"/>
</radialGradient>
<radialGradient id="paint32_radial_311_117" cx="0" cy="0" r="1" gradientUnits="userSpaceOnUse" gradientTransform="translate(1012.98 1013.06) rotate(94.2026) scale(0.010826 0.0322902)">
<stop stop-color="white" stop-opacity="0.11"/>
<stop offset="1" stop-color="white" stop-opacity="0"/>
</radialGradient>
<radialGradient id="paint33_radial_311_117" cx="0" cy="0" r="1" gradientUnits="userSpaceOnUse" gradientTransform="translate(1012.98 1013.06) rotate(94.2026) scale(0.010826 0.0322902)">
<stop stop-color="white" stop-opacity="0.11"/>
<stop offset="1" stop-color="white" stop-opacity="0"/>
</radialGradient>
<radialGradient id="paint34_radial_311_117" cx="0" cy="0" r="1" gradientUnits="userSpaceOnUse" gradientTransform="translate(1012.89 1012.98) rotate(92.816) scale(0.0109419 0.0219109)">
<stop stop-color="white" stop-opacity="0.11"/>
<stop offset="1" stop-color="white" stop-opacity="0"/>
</radialGradient>
<radialGradient id="paint35_radial_311_117" cx="0" cy="0" r="1" gradientUnits="userSpaceOnUse" gradientTransform="translate(1012.93 1013.02) rotate(90.936) scale(0.0323621 0.021571)">
<stop stop-color="white" stop-opacity="0.11"/>
<stop offset="1" stop-color="white" stop-opacity="0"/>
</radialGradient>
<radialGradient id="paint36_radial_311_117" cx="0" cy="0" r="1" gradientUnits="userSpaceOnUse" gradientTransform="translate(1013.01 1013.09) rotate(91.4067) scale(0.0218974 0.0219308)">
<stop stop-color="white" stop-opacity="0.11"/>
<stop offset="1" stop-color="white" stop-opacity="0"/>
</radialGradient>
<radialGradient id="paint37_radial_311_117" cx="0" cy="0" r="1" gradientUnits="userSpaceOnUse" gradientTransform="translate(1520.98 1521.02) rotate(91.4047) scale(528.669 528.733)">
<stop stop-color="white" stop-opacity="0.11"/>
<stop offset="1" stop-color="white" stop-opacity="0"/>
</radialGradient>
<radialGradient id="paint38_radial_311_117" cx="0" cy="0" r="1" gradientUnits="userSpaceOnUse" gradientTransform="translate(1357.39 1521.12) rotate(90.95) scale(528.488 357.54)">
<stop stop-color="white" stop-opacity="0.11"/>
<stop offset="1" stop-color="white" stop-opacity="0"/>
</radialGradient>
<radialGradient id="paint39_radial_311_117" cx="0" cy="0" r="1" gradientUnits="userSpaceOnUse" gradientTransform="translate(1012.93 1013.07) rotate(90.3509) scale(0.084891 0.0212185)">
<stop stop-color="white" stop-opacity="0.11"/>
<stop offset="1" stop-color="white" stop-opacity="0"/>
</radialGradient>
<radialGradient id="paint40_radial_311_117" cx="0" cy="0" r="1" gradientUnits="userSpaceOnUse" gradientTransform="translate(1012.93 1013.07) rotate(90.3509) scale(0.084891 0.0212185)">
<stop stop-color="white" stop-opacity="0.11"/>
<stop offset="1" stop-color="white" stop-opacity="0"/>
</radialGradient>
<radialGradient id="paint41_radial_311_117" cx="0" cy="0" r="1" gradientUnits="userSpaceOnUse" gradientTransform="translate(1211.22 1520.96) rotate(90.5485) scale(528.598 206.514)">
<stop stop-color="white" stop-opacity="0.11"/>
<stop offset="1" stop-color="white" stop-opacity="0"/>
</radialGradient>
<radialGradient id="paint42_radial_311_117" cx="0" cy="0" r="1" gradientUnits="userSpaceOnUse" gradientTransform="translate(1089.93 1521.34) rotate(90.211) scale(528.186 79.3861)">
<stop stop-color="white" stop-opacity="0.11"/>
<stop offset="1" stop-color="white" stop-opacity="0"/>
</radialGradient>
<radialGradient id="paint43_radial_311_117" cx="0" cy="0" r="1" gradientUnits="userSpaceOnUse" gradientTransform="translate(917.029 1520.98) rotate(90.265) scale(528.558 99.782)">
<stop stop-color="white" stop-opacity="0.11"/>
<stop offset="1" stop-color="white" stop-opacity="0"/>
</radialGradient>
<radialGradient id="paint44_radial_311_117" cx="0" cy="0" r="1" gradientUnits="userSpaceOnUse" gradientTransform="translate(1013.21 1014.18) rotate(90.4013) scale(0.0745229 0.0212994)">
<stop stop-color="white" stop-opacity="0.11"/>
<stop offset="1" stop-color="white" stop-opacity="0"/>
</radialGradient>
<radialGradient id="paint45_radial_311_117" cx="0" cy="0" r="1" gradientUnits="userSpaceOnUse" gradientTransform="translate(1013.24 1014.06) rotate(90.3515) scale(0.0432398 0.0108243)">
<stop stop-color="white" stop-opacity="0.11"/>
<stop offset="1" stop-color="white" stop-opacity="0"/>
</radialGradient>
<radialGradient id="paint46_radial_311_117" cx="0" cy="0" r="1" gradientUnits="userSpaceOnUse" gradientTransform="translate(792.877 1521.55) rotate(90.61) scale(527.991 229.371)">
<stop stop-color="white" stop-opacity="0.11"/>
<stop offset="1" stop-color="white" stop-opacity="0"/>
</radialGradient>
<radialGradient id="paint47_radial_311_117" cx="0" cy="0" r="1" gradientUnits="userSpaceOnUse" gradientTransform="translate(642.08 1520.31) rotate(91.0273) scale(529.335 387.217)">
<stop stop-color="white" stop-opacity="0.11"/>
<stop offset="1" stop-color="white" stop-opacity="0"/>
</radialGradient>
<radialGradient id="paint48_radial_311_117" cx="0" cy="0" r="1" gradientUnits="userSpaceOnUse" gradientTransform="translate(506.991 1520.87) rotate(91.4016) scale(528.827 527.708)">
<stop stop-color="white" stop-opacity="0.11"/>
<stop offset="1" stop-color="white" stop-opacity="0"/>
</radialGradient>
<radialGradient id="paint49_radial_311_117" cx="0" cy="0" r="1" gradientUnits="userSpaceOnUse" gradientTransform="translate(507.022 1362.28) rotate(92.0308) scale(365.042 527.566)">
<stop stop-color="white" stop-opacity="0.11"/>
<stop offset="1" stop-color="white" stop-opacity="0"/>
</radialGradient>
<radialGradient id="paint50_radial_311_117" cx="0" cy="0" r="1" gradientUnits="userSpaceOnUse" gradientTransform="translate(1013.44 1012.71) rotate(97.0019) scale(0.0107252 0.0529579)">
<stop stop-color="white" stop-opacity="0.11"/>
<stop offset="1" stop-color="white" stop-opacity="0"/>
</radialGradient>
<radialGradient id="paint51_radial_311_117" cx="0" cy="0" r="1" gradientUnits="userSpaceOnUse" gradientTransform="translate(506.697 1216.14) rotate(93.4947) scale(212.077 526.578)">
<stop stop-color="white" stop-opacity="0.11"/>
<stop offset="1" stop-color="white" stop-opacity="0"/>
</radialGradient>
<radialGradient id="paint52_radial_311_117" cx="0" cy="0" r="1" gradientUnits="userSpaceOnUse" gradientTransform="translate(1013.44 1012.68) rotate(93.5034) scale(0.0213955 0.0532561)">
<stop stop-color="white" stop-opacity="0.11"/>
<stop offset="1" stop-color="white" stop-opacity="0"/>
</radialGradient>
<radialGradient id="paint53_radial_311_117" cx="0" cy="0" r="1" gradientUnits="userSpaceOnUse" gradientTransform="translate(507.022 1093.22) rotate(98.6698) scale(85.8144 521.866)">
<stop stop-color="white" stop-opacity="0.11"/>
<stop offset="1" stop-color="white" stop-opacity="0"/>
</radialGradient>
<radialGradient id="paint54_radial_311_117" cx="0" cy="0" r="1" gradientUnits="userSpaceOnUse" gradientTransform="translate(506.565 922.299) rotate(97.8559) scale(94.5555 522.472)">
<stop stop-color="white" stop-opacity="0.11"/>
<stop offset="1" stop-color="white" stop-opacity="0"/>
</radialGradient>
<radialGradient id="paint55_radial_311_117" cx="0" cy="0" r="1" gradientUnits="userSpaceOnUse" gradientTransform="translate(951.263 993.113) rotate(94.7375) scale(19.3938 65.1427)">
<stop stop-color="white" stop-opacity="0.11"/>
<stop offset="1" stop-color="white" stop-opacity="0"/>
</radialGradient>
</defs>
</svg>
